<mxfile host="app.diagrams.net" modified="2022-04-22T09:08:54.355Z" agent="5.0 (Macintosh; Intel Mac OS X 10_15_7) AppleWebKit/537.36 (KHTML, like Gecko) Chrome/100.0.4896.127 Safari/537.36" etag="Rdkhws8Z0G6VodWfHMWC" version="17.4.6" type="github">
  <diagram id="ejNaJPNXuLRU8gTVegOm" name="第 1 页">
    <mxGraphModel dx="1069" dy="788" grid="1" gridSize="10" guides="1" tooltips="1" connect="1" arrows="1" fold="1" page="1" pageScale="1" pageWidth="1169" pageHeight="1654" math="0" shadow="0">
      <root>
        <mxCell id="0" />
        <mxCell id="1" parent="0" />
        <mxCell id="8pe4ZQPsovDr-rk-gTb1-14" value="" style="group;" parent="1" vertex="1" connectable="0">
          <mxGeometry x="523" y="103" width="370" height="660" as="geometry" />
        </mxCell>
        <mxCell id="8pe4ZQPsovDr-rk-gTb1-1" value="" style="rounded=1;whiteSpace=wrap;html=1;strokeWidth=3;" parent="8pe4ZQPsovDr-rk-gTb1-14" vertex="1">
          <mxGeometry width="370" height="660" as="geometry" />
        </mxCell>
        <mxCell id="8pe4ZQPsovDr-rk-gTb1-2" value="" style="shape=image;verticalLabelPosition=bottom;verticalAlign=top;aspect=fixed;imageAspect=0;image=data:image/svg+xml,PHN2ZyB4bWxuczpjYz0iaHR0cDovL2NyZWF0aXZlY29tbW9ucy5vcmcvbnMjIiB4bWxuczpkYz0iaHR0cDovL3B1cmwub3JnL2RjL2VsZW1lbnRzLzEuMS8iIHhtbG5zOmlua3NjYXBlPSJodHRwOi8vd3d3Lmlua3NjYXBlLm9yZy9uYW1lc3BhY2VzL2lua3NjYXBlIiB4bWxuczpyZGY9Imh0dHA6Ly93d3cudzMub3JnLzE5OTkvMDIvMjItcmRmLXN5bnRheC1ucyMiIHhtbG5zOnNvZGlwb2RpPSJodHRwOi8vc29kaXBvZGkuc291cmNlZm9yZ2UubmV0L0RURC9zb2RpcG9kaS0wLmR0ZCIgeG1sbnM6c3ZnPSJodHRwOi8vd3d3LnczLm9yZy8yMDAwL3N2ZyIgeG1sbnM9Imh0dHA6Ly93d3cudzMub3JnLzIwMDAvc3ZnIiB4bWxuczp4bGluaz0iaHR0cDovL3d3dy53My5vcmcvMTk5OS94bGluayIgdmVyc2lvbj0iMS4xIiBpZD0ic3ZnMjYwMjQ5IiBpbmtzY2FwZTp2ZXJzaW9uPSIwLjkyLjMgKDI0MDU1NDYsIDIwMTgtMDMtMTEpIiBzb2RpcG9kaTpkb2NuYW1lPSJteXNxbF9zZXJ2ZXIuc3ZnIiB4PSIwcHgiIHk9IjBweCIgdmlld0JveD0iMCAwIDQ4LjQxIDcwLjczIiBzdHlsZT0iZW5hYmxlLWJhY2tncm91bmQ6bmV3IDAgMCA0OC40MSA3MC43MzsiIHhtbDpzcGFjZT0icHJlc2VydmUiPiYjeGE7PGZpbHRlciBpZD0iZmlsdGVyXzIiPiYjeGE7CTxmZUdhdXNzaWFuQmx1ciBpZD0iZmVHYXVzc2lhbkJsdXIyNjAwOTIiIHN0ZERldmlhdGlvbj0iMiIvPiYjeGE7PC9maWx0ZXI+JiN4YTs8c29kaXBvZGk6bmFtZWR2aWV3IGJvcmRlcmNvbG9yPSIjNjY2NjY2IiBib3JkZXJvcGFjaXR5PSIxIiBmaXQtbWFyZ2luLWJvdHRvbT0iMCIgZml0LW1hcmdpbi1sZWZ0PSIwIiBmaXQtbWFyZ2luLXJpZ2h0PSIwIiBmaXQtbWFyZ2luLXRvcD0iMCIgZ3JpZHRvbGVyYW5jZT0iMTAiIGd1aWRldG9sZXJhbmNlPSIxMCIgaWQ9Im5hbWVkdmlldzI2MDI1MSIgaW5rc2NhcGU6Y3VycmVudC1sYXllcj0ic3ZnMjYwMjQ5IiBpbmtzY2FwZTpjeD0iMzIuMTkwODk3IiBpbmtzY2FwZTpjeT0iNDcuMDQ2MjQyIiBpbmtzY2FwZTpwYWdlb3BhY2l0eT0iMCIgaW5rc2NhcGU6cGFnZXNoYWRvdz0iMiIgaW5rc2NhcGU6d2luZG93LWhlaWdodD0iMTAxNyIgaW5rc2NhcGU6d2luZG93LW1heGltaXplZD0iMSIgaW5rc2NhcGU6d2luZG93LXdpZHRoPSIxOTIwIiBpbmtzY2FwZTp3aW5kb3cteD0iLTgiIGlua3NjYXBlOndpbmRvdy15PSItOCIgaW5rc2NhcGU6em9vbT0iOC45ODI0NzUzIiBvYmplY3R0b2xlcmFuY2U9IjEwIiBwYWdlY29sb3I9IiNmZmZmZmYiIHNob3dncmlkPSJmYWxzZSI+JiN4YTsJPC9zb2RpcG9kaTpuYW1lZHZpZXc+JiN4YTs8ZyBpZD0iZzI2MDI0NyIgdHJhbnNmb3JtPSJ0cmFuc2xhdGUoLTAuNzUsLTAuNzUwMjIyMTIpIj4mI3hhOwk8dGl0bGUgaWQ9InRpdGxlMjYwMDk2Ij5QYWdlLTE8L3RpdGxlPiYjeGE7CTxnIGlkPSJncm91cDExMDQ0LTEiIHRyYW5zZm9ybT0idHJhbnNsYXRlKDEuNSwtMi42MzMyMykiPiYjeGE7CQk8dGl0bGUgaWQ9InRpdGxlMjYwMDk4Ij5NeVNRTCBTZXJ2ZXI8L3RpdGxlPiYjeGE7CQk8ZyBpZD0iZ3JvdXAxMTA0NS0yIj4mI3hhOwkJCTx0aXRsZSBpZD0idGl0bGUyNjAxMDAiPkdlbmVyaWMgU2VydmljZTwvdGl0bGU+JiN4YTsJCQk8ZyBpZD0iZ3JvdXAxMTA0Ni0zIiB0cmFuc2Zvcm09InRyYW5zbGF0ZSgwLC0wLjAwNzM5ODc2KSI+JiN4YTsJCQkJPHRpdGxlIGlkPSJ0aXRsZTI2MDEwMiI+ZzE1NDMzLjExNzIxPC90aXRsZT4mI3hhOwkJCQk8ZyBpZD0ic2hhcGUxMTA0Ny00Ij4mI3hhOwkJCQkJPHRpdGxlIGlkPSJ0aXRsZTI2MDEwNCI+cmVjdDE1NDA1PC90aXRsZT4mI3hhOwkJCQkJJiN4YTsJCQkJCQk8cmVjdCBpZD0icmVjdDI2MDEwNiIgeT0iNC4xNCIgc3R5bGU9ImZpbGw6I0ZGRkZGRjtzdHJva2U6IzU1NkE4QTtzdHJva2Utd2lkdGg6MS41O3N0cm9rZS1taXRlcmxpbWl0OjM7IiB3aWR0aD0iMzkuNzUiIGhlaWdodD0iNjguMjUiLz4mI3hhOwkJCQk8L2c+JiN4YTsJCQkJPGcgaWQ9Imdyb3VwMTEwNDgtNiIgdHJhbnNmb3JtPSJ0cmFuc2xhdGUoMS41LC0wLjc1KSI+JiN4YTsJCQkJCTx0aXRsZSBpZD0idGl0bGUyNjAxMDkiPmcxNTQyNTwvdGl0bGU+JiN4YTsJCQkJCTxnIGlkPSJzaGFwZTExMDQ5LTciIHRyYW5zZm9ybT0idHJhbnNsYXRlKDE4KSI+JiN4YTsJCQkJCQk8dGl0bGUgaWQ9InRpdGxlMjYwMTExIj5yZWN0MTU0MDc8L3RpdGxlPiYjeGE7CQkJCQkJPHJlY3QgaWQ9InJlY3QyNjAxMTMiIHk9IjUuNjQiIHN0eWxlPSJmaWxsOiNFNUU1RTU7IiB3aWR0aD0iMTkuNSIgaGVpZ2h0PSI2Ni43NSIvPiYjeGE7CQkJCQk8L2c+JiN4YTsJCQkJCTxnIGlkPSJzaGFwZTExMDUwLTkiIHRyYW5zZm9ybT0idHJhbnNsYXRlKDAsLTQ4KSI+JiN4YTsJCQkJCQk8dGl0bGUgaWQ9InRpdGxlMjYwMTE2Ij5yZWN0MTU0MDk8L3RpdGxlPiYjeGE7CQkJCQkJPHJlY3QgaWQ9InJlY3QyNjAxMTgiIHk9IjcwLjE0IiBzdHlsZT0iZmlsbDojMkJDN0Y0OyIgd2lkdGg9IjE4IiBoZWlnaHQ9IjIuMjUiLz4mI3hhOwkJCQkJPC9nPiYjeGE7CQkJCQk8ZyBpZD0ic2hhcGUxMTA1MS0xMSIgdHJhbnNmb3JtPSJ0cmFuc2xhdGUoMCwtNTguNSkiPiYjeGE7CQkJCQkJPHRpdGxlIGlkPSJ0aXRsZTI2MDEyMSI+cG9seWdvbjE1NDExPC90aXRsZT4mI3hhOwkJCQkJCTxyZWN0IGlkPSJyZWN0MjYwMTIzIiB5PSI3MC4xNCIgc3R5bGU9ImZpbGw6bm9uZTsiIHdpZHRoPSIyNyIgaGVpZ2h0PSIyLjI1Ii8+JiN4YTsJCQkJCTwvZz4mI3hhOwkJCQkJPGcgaWQ9InNoYXBlMTEwNTItMTMiIHRyYW5zZm9ybT0idHJhbnNsYXRlKDAsLTU4LjUpIj4mI3hhOwkJCQkJCTx0aXRsZSBpZD0idGl0bGUyNjAxMjYiPnBvbHlsaW5lMTU0MTM8L3RpdGxlPiYjeGE7CQkJCQkJPHJlY3QgaWQ9InJlY3QyNjAxMjgiIHk9IjcwLjE0IiBzdHlsZT0iZmlsbDpub25lOyIgd2lkdGg9IjI3IiBoZWlnaHQ9IjIuMjUiLz4mI3hhOwkJCQkJPC9nPiYjeGE7CQkJCQk8ZyBpZD0ic2hhcGUxMTA1My0xNSIgdHJhbnNmb3JtPSJ0cmFuc2xhdGUoMCwtNTMuMjUpIj4mI3hhOwkJCQkJCTx0aXRsZSBpZD0idGl0bGUyNjAxMzEiPnJlY3QxNTQxNTwvdGl0bGU+JiN4YTsJCQkJCQk8cmVjdCBpZD0icmVjdDI2MDEzMyIgeT0iNzAuMTQiIHN0eWxlPSJmaWxsOiMyQkM3RjQ7IiB3aWR0aD0iMTgiIGhlaWdodD0iMi4yNSIvPiYjeGE7CQkJCQk8L2c+JiN4YTsJCQkJCTxnIGlkPSJzaGFwZTExMDU0LTE3IiB0cmFuc2Zvcm09InRyYW5zbGF0ZSgwLC01OC41KSI+JiN4YTsJCQkJCQk8dGl0bGUgaWQ9InRpdGxlMjYwMTM2Ij5yZWN0MTU0MTc8L3RpdGxlPiYjeGE7CQkJCQkJPHJlY3QgaWQ9InJlY3QyNjAxMzgiIHk9IjcwLjE0IiBzdHlsZT0iZmlsbDojMkJDN0Y0OyIgd2lkdGg9IjE4IiBoZWlnaHQ9IjIuMjUiLz4mI3hhOwkJCQkJPC9nPiYjeGE7CQkJCQk8ZyBpZD0ic2hhcGUxMTA1NS0xOSIgdHJhbnNmb3JtPSJ0cmFuc2xhdGUoMTgsLTQ4KSI+JiN4YTsJCQkJCQk8dGl0bGUgaWQ9InRpdGxlMjYwMTQxIj5yZWN0MTU0MTk8L3RpdGxlPiYjeGE7CQkJCQkJPHJlY3QgaWQ9InJlY3QyNjAxNDMiIHk9IjcwLjE0IiBzdHlsZT0iZmlsbDojNTU2QThBOyIgd2lkdGg9IjE5LjUiIGhlaWdodD0iMi4yNSIvPiYjeGE7CQkJCQk8L2c+JiN4YTsJCQkJCTxnIGlkPSJzaGFwZTExMDU2LTIxIiB0cmFuc2Zvcm09InRyYW5zbGF0ZSgxOCwtNTMuMjUpIj4mI3hhOwkJCQkJCTx0aXRsZSBpZD0idGl0bGUyNjAxNDYiPnJlY3QxNTQyMTwvdGl0bGU+JiN4YTsJCQkJCQk8cmVjdCBpZD0icmVjdDI2MDE0OCIgeT0iNzAuMTQiIHN0eWxlPSJmaWxsOiM1NTZBOEE7IiB3aWR0aD0iMTkuNSIgaGVpZ2h0PSIyLjI1Ii8+JiN4YTsJCQkJCTwvZz4mI3hhOwkJCQkJPGcgaWQ9InNoYXBlMTEwNTctMjMiIHRyYW5zZm9ybT0idHJhbnNsYXRlKDE4LC01OC41KSI+JiN4YTsJCQkJCQk8dGl0bGUgaWQ9InRpdGxlMjYwMTUxIj5yZWN0MTU0MjM8L3RpdGxlPiYjeGE7CQkJCQkJPHJlY3QgaWQ9InJlY3QyNjAxNTMiIHk9IjcwLjE0IiBzdHlsZT0iZmlsbDojNTU2QThBOyIgd2lkdGg9IjE5LjUiIGhlaWdodD0iMi4yNSIvPiYjeGE7CQkJCQk8L2c+JiN4YTsJCQkJPC9nPiYjeGE7CQkJCTxnIGlkPSJzaGFwZTExMDU4LTI1IiB0cmFuc2Zvcm09InRyYW5zbGF0ZSgwLjc1LC01OS4yNSkiPiYjeGE7CQkJCQk8dGl0bGUgaWQ9InRpdGxlMjYwMTU3Ij5yZWN0MTU0Mjc8L3RpdGxlPiYjeGE7CQkJCQk8cmVjdCBpZD0icmVjdDI2MDE1OSIgeT0iNzAuMTQiIHN0eWxlPSJmaWxsOiM1NTZBOEE7IiB3aWR0aD0iMi4yNSIgaGVpZ2h0PSIyLjI1Ii8+JiN4YTsJCQkJPC9nPiYjeGE7CQkJCTxnIGlkPSJzaGFwZTExMDU5LTI3IiB0cmFuc2Zvcm09InRyYW5zbGF0ZSgwLjc1LC01NCkiPiYjeGE7CQkJCQk8dGl0bGUgaWQ9InRpdGxlMjYwMTYyIj5yZWN0MTU0Mjk8L3RpdGxlPiYjeGE7CQkJCQk8cmVjdCBpZD0icmVjdDI2MDE2NCIgeT0iNzAuMTQiIHN0eWxlPSJmaWxsOiM1NTZBOEE7IiB3aWR0aD0iMi4yNSIgaGVpZ2h0PSIyLjI1Ii8+JiN4YTsJCQkJPC9nPiYjeGE7CQkJCTxnIGlkPSJzaGFwZTExMDYwLTI5IiB0cmFuc2Zvcm09InRyYW5zbGF0ZSgwLjc1LC00OC43NSkiPiYjeGE7CQkJCQk8dGl0bGUgaWQ9InRpdGxlMjYwMTY3Ij5yZWN0MTU0MzE8L3RpdGxlPiYjeGE7CQkJCQk8cmVjdCBpZD0icmVjdDI2MDE2OSIgeT0iNzAuMTQiIHN0eWxlPSJmaWxsOiM1NTZBOEE7IiB3aWR0aD0iMi4yNSIgaGVpZ2h0PSIyLjI1Ii8+JiN4YTsJCQkJPC9nPiYjeGE7CQkJPC9nPiYjeGE7CQkJPGcgaWQ9InNoYXBlMTEwNjEtMzEiIHRyYW5zZm9ybT0idHJhbnNsYXRlKDEzLjY5ODMpIj4mI3hhOwkJCQk8dGl0bGUgaWQ9InRpdGxlMjYwMTczIj5wb2x5Z29uMTU0MzUuMTE3Mzc8L3RpdGxlPiYjeGE7CQkJCSYjeGE7CQkJCQk8cGF0aCBpZD0icGF0aDI2MDE3NSIgaW5rc2NhcGU6Y29ubmVjdG9yLWN1cnZhdHVyZT0iMCIgc3R5bGU9ImZpbGw6I0ZGRkZGRjtzdHJva2U6I0VBNzAwRDtzdHJva2Utd2lkdGg6MS41O3N0cm9rZS1taXRlcmxpbWl0OjM7IiBkPSIgICAgICBNOC4yNyw3Mi4zOUwwLDU4LjE2bDguMjctMTQuMjRoMTYuNTVsOC4yNywxNC4yNGwtOC4yNywxNC4yM0g4LjI3eiIvPiYjeGE7CQkJPC9nPiYjeGE7CQk8L2c+JiN4YTsJCTxnIGlkPSJncm91cDExMDYyLTMzIiB0cmFuc2Zvcm09InRyYW5zbGF0ZSgyMS4yOTEyLC0yLjMzOTU1KSI+JiN4YTsJCQk8dGl0bGUgaWQ9InRpdGxlMjYwMTc5Ij5NeVNRTDwvdGl0bGU+JiN4YTsJCQk8ZyBpZD0ic2hhcGUxMTA2My0zNCI+JiN4YTsJCQkJPHRpdGxlIGlkPSJ0aXRsZTI2MDE4MSI+U2hlZXQuMTEwNjM8L3RpdGxlPiYjeGE7CQkJCTxnIGlkPSJzaGFkb3cxMTA2My0zNSIgdHJhbnNmb3JtPSJ0cmFuc2xhdGUoMC4zNDU2LDEuOTcyOCkiPiYjeGE7CQkJCQk8ZyBpZD0icGF0aDI2MDE4MyIgaW5rc2NhcGU6Y29ubmVjdG9yLWN1cnZhdHVyZT0iMCIgc3R5bGU9ImZpbHRlcjp1cmwoI2ZpbHRlcl8yKTsiPiYjeGE7CQkJCQkJPHBhdGggc3R5bGU9Im9wYWNpdHk6MC4yMjtmaWxsOiM1QjlCRDU7IiBkPSJNMCw1MS40OXYxNy41OWMwLDEuODMsNC4xMiwzLjMxLDkuMiwzLjMxdi0yMC45TDAsNTEuNDl6Ii8+JiN4YTsJCQkJCTwvZz4mI3hhOwkJCQk8L2c+JiN4YTsJCQkJPHBhdGggaWQ9InBhdGgyNjAxODYiIGlua3NjYXBlOmNvbm5lY3Rvci1jdXJ2YXR1cmU9IjAiIHN0eWxlPSJmaWxsOiMwMDcyQzY7IiBkPSJNMCw1MS40OXYxNy41OWMwLDEuODMsNC4xMiwzLjMxLDkuMiwzLjMxICAgICAgdi0yMC45TDAsNTEuNDl6Ii8+JiN4YTsJCQk8L2c+JiN4YTsJCQk8ZyBpZD0ic2hhcGUxMTA2NC0zOSIgdHJhbnNmb3JtPSJ0cmFuc2xhdGUoOS4wNzEwOCwtNC44NDA0OWUtNCkiPiYjeGE7CQkJCTx0aXRsZSBpZD0idGl0bGUyNjAxODkiPlNoZWV0LjExMDY0PC90aXRsZT4mI3hhOwkJCQk8ZyBpZD0ic2hhZG93MTEwNjQtNDAiIHRyYW5zZm9ybT0idHJhbnNsYXRlKDAuMzQ1NiwxLjk3MjgpIj4mI3hhOwkJCQkJPGcgaWQ9InBhdGgyNjAxOTEiIGlua3NjYXBlOmNvbm5lY3Rvci1jdXJ2YXR1cmU9IjAiIHN0eWxlPSJmaWx0ZXI6dXJsKCNmaWx0ZXJfMik7Ij4mI3hhOwkJCQkJCTxwYXRoIHN0eWxlPSJvcGFjaXR5OjAuMjI7ZmlsbDojNUI5QkQ1OyIgZD0iTTAsNzIuMzloMC4xM2M1LjA3LDAsOS4xOS0xLjQ4LDkuMTktMy4zMVY1MS41SDBWNzIuMzl6Ii8+JiN4YTsJCQkJCTwvZz4mI3hhOwkJCQk8L2c+JiN4YTsJCQkJPHBhdGggaWQ9InBhdGgyNjAxOTQiIGlua3NjYXBlOmNvbm5lY3Rvci1jdXJ2YXR1cmU9IjAiIHN0eWxlPSJmaWxsOiMwMDcyQzY7IiBkPSJNMCw3Mi4zOWgwLjEzYzUuMDcsMCw5LjE5LTEuNDgsOS4xOS0zLjMxICAgICAgVjUxLjVIMFY3Mi4zOXoiLz4mI3hhOwkJCTwvZz4mI3hhOwkJCTxnIGlkPSJzaGFwZTExMDY1LTQ0IiB0cmFuc2Zvcm09InRyYW5zbGF0ZSg5LjA3MTA4LC00Ljg0MDQ5ZS00KSI+JiN4YTsJCQkJPHRpdGxlIGlkPSJ0aXRsZTI2MDE5NyI+U2hlZXQuMTEwNjU8L3RpdGxlPiYjeGE7CQkJCTxnIGlkPSJzaGFkb3cxMTA2NS00NSIgdHJhbnNmb3JtPSJ0cmFuc2xhdGUoMC4zNDU2LDEuOTcyOCkiPiYjeGE7CQkJCQk8ZyBpZD0icGF0aDI2MDE5OSIgaW5rc2NhcGU6Y29ubmVjdG9yLWN1cnZhdHVyZT0iMCIgc3R5bGU9ImZpbHRlcjp1cmwoI2ZpbHRlcl8yKTsiPiYjeGE7CQkJCQkJPHBhdGggc3R5bGU9Im9wYWNpdHk6MC4yMjtmaWxsOiM1QjlCRDU7IiBkPSJNMCw3Mi4zOWgwLjEzYzUuMDcsMCw5LjE5LTEuNDgsOS4xOS0zLjMxVjUxLjVIMFY3Mi4zOXoiLz4mI3hhOwkJCQkJPC9nPiYjeGE7CQkJCTwvZz4mI3hhOwkJCQk8cGF0aCBpZD0icGF0aDI2MDIwMiIgaW5rc2NhcGU6Y29ubmVjdG9yLWN1cnZhdHVyZT0iMCIgc3R5bGU9ImZpbGw6I0ZGRkZGRjtmaWxsLW9wYWNpdHk6MC4xNTsiIGQ9Ik0wLDcyLjM5aDAuMTMgICAgICBjNS4wNywwLDkuMTktMS40OCw5LjE5LTMuMzFWNTEuNUgwVjcyLjM5eiIvPiYjeGE7CQkJPC9nPiYjeGE7CQkJPGcgaWQ9InNoYXBlMTEwNjYtNDkiIHRyYW5zZm9ybT0idHJhbnNsYXRlKDAsLTE3LjU4OTQpIj4mI3hhOwkJCQk8dGl0bGUgaWQ9InRpdGxlMjYwMjA1Ij5TaGVldC4xMTA2NjwvdGl0bGU+JiN4YTsJCQkJPGcgaWQ9InNoYWRvdzExMDY2LTUwIiB0cmFuc2Zvcm09InRyYW5zbGF0ZSgwLjM0NTYsMS45NzI4KSI+JiN4YTsJCQkJCTxnIGlkPSJwYXRoMjYwMjA3IiBpbmtzY2FwZTpjb25uZWN0b3ItY3VydmF0dXJlPSIwIiBzdHlsZT0iZmlsdGVyOnVybCgjZmlsdGVyXzIpOyI+JiN4YTsJCQkJCQk8cGF0aCBzdHlsZT0ib3BhY2l0eTowLjIyO2ZpbGw6IzVCOUJENTsiIGQ9Ik0xOC4zOSw2OS4wOGMwLDEuODMtNC4xMSwzLjMxLTkuMTksMy4zMVMwLDcwLjkxLDAsNjkuMDggICAgICAgIGMwLTEuODIsNC4xMi0zLjMsOS4yLTMuM1MxOC4zOSw2Ny4yNiwxOC4zOSw2OS4wOHoiLz4mI3hhOwkJCQkJPC9nPiYjeGE7CQkJCTwvZz4mI3hhOwkJCQk8cGF0aCBpZD0icGF0aDI2MDIxMCIgaW5rc2NhcGU6Y29ubmVjdG9yLWN1cnZhdHVyZT0iMCIgc3R5bGU9ImZpbGw6I0ZGRkZGRjsiIGQ9Ik0xOC4zOSw2OS4wOGMwLDEuODMtNC4xMSwzLjMxLTkuMTksMy4zMSAgICAgIFMwLDcwLjkxLDAsNjkuMDhjMC0xLjgyLDQuMTItMy4zLDkuMi0zLjNTMTguMzksNjcuMjYsMTguMzksNjkuMDh6Ii8+JiN4YTsJCQk8L2c+JiN4YTsJCQk8ZyBpZD0ic2hhcGUxMTA2Ny01NCIgdHJhbnNmb3JtPSJ0cmFuc2xhdGUoMS44ODAwNSwtMTguOTA0NSkiPiYjeGE7CQkJCTx0aXRsZSBpZD0idGl0bGUyNjAyMTMiPlNoZWV0LjExMDY3PC90aXRsZT4mI3hhOwkJCQk8ZyBpZD0ic2hhZG93MTEwNjctNTUiIHRyYW5zZm9ybT0idHJhbnNsYXRlKDAuMzQ1NiwxLjk3MjgpIj4mI3hhOwkJCQkJPGcgaWQ9InBhdGgyNjAyMTUiIGlua3NjYXBlOmNvbm5lY3Rvci1jdXJ2YXR1cmU9IjAiIHN0eWxlPSJmaWx0ZXI6dXJsKCNmaWx0ZXJfMik7Ij4mI3hhOwkJCQkJCTxwYXRoIHN0eWxlPSJvcGFjaXR5OjAuMjI7ZmlsbDojNUI5QkQ1OyIgZD0iTTE0LjYzLDcwLjIxYzAsMS4yLTMuMjcsMi4xOC03LjMxLDIuMThTMCw3MS40MSwwLDcwLjIxICAgICAgICBjMC0xLjIxLDMuMjgtMi4xOCw3LjMyLTIuMThTMTQuNjMsNjksMTQuNjMsNzAuMjF6Ii8+JiN4YTsJCQkJCTwvZz4mI3hhOwkJCQk8L2c+JiN4YTsJCQkJPHBhdGggaWQ9InBhdGgyNjAyMTgiIGlua3NjYXBlOmNvbm5lY3Rvci1jdXJ2YXR1cmU9IjAiIHN0eWxlPSJmaWxsOiNERDU5MDA7IiBkPSJNMTQuNjMsNzAuMjFjMCwxLjItMy4yNywyLjE4LTcuMzEsMi4xOCAgICAgIFMwLDcxLjQxLDAsNzAuMjFjMC0xLjIxLDMuMjgtMi4xOCw3LjMyLTIuMThTMTQuNjMsNjksMTQuNjMsNzAuMjF6Ii8+JiN4YTsJCQk8L2c+JiN4YTsJCQk8ZyBpZD0ic2hhcGUxMTA2OC01OSIgdHJhbnNmb3JtPSJ0cmFuc2xhdGUoMS44ODEwMiwtMTkuNzUzNikiPiYjeGE7CQkJCTx0aXRsZSBpZD0idGl0bGUyNjAyMjEiPlNoZWV0LjExMDY4PC90aXRsZT4mI3hhOwkJCQk8ZyBpZD0ic2hhZG93MTEwNjgtNjAiIHRyYW5zZm9ybT0idHJhbnNsYXRlKDAuMzQ1NiwxLjk3MjgpIj4mI3hhOwkJCQkJPGcgaWQ9InBhdGgyNjAyMjMiIGlua3NjYXBlOmNvbm5lY3Rvci1jdXJ2YXR1cmU9IjAiIHN0eWxlPSJmaWx0ZXI6dXJsKCNmaWx0ZXJfMik7Ij4mI3hhOwkJCQkJCTxwYXRoIHN0eWxlPSJvcGFjaXR5OjAuMjI7ZmlsbDojNUI5QkQ1OyIgZD0iTTEzLjEsNzIuMzljMC45Ni0wLjM3LDEuNTMtMC44MywxLjUzLTEuMzNjMC0xLjIxLTMuMjctMi4xOC03LjMxLTIuMTggICAgICAgIFMwLDY5Ljg1LDAsNzEuMDZjMCwwLjUsMC41OCwwLjk2LDEuNTMsMS4zM2MxLjM0LTAuNTEsMy40My0wLjg1LDUuNzktMC44NUM5LjY3LDcxLjU0LDExLjc2LDcxLjg4LDEzLjEsNzIuMzl6Ii8+JiN4YTsJCQkJCTwvZz4mI3hhOwkJCQk8L2c+JiN4YTsJCQkJPHBhdGggaWQ9InBhdGgyNjAyMjYiIGlua3NjYXBlOmNvbm5lY3Rvci1jdXJ2YXR1cmU9IjAiIHN0eWxlPSJmaWxsOiNGRjhDMDA7IiBkPSJNMTMuMSw3Mi4zOWMwLjk2LTAuMzcsMS41My0wLjgzLDEuNTMtMS4zMyAgICAgIGMwLTEuMjEtMy4yNy0yLjE4LTcuMzEtMi4xOFMwLDY5Ljg1LDAsNzEuMDZjMCwwLjUsMC41OCwwLjk2LDEuNTMsMS4zM2MxLjM0LTAuNTEsMy40My0wLjg1LDUuNzktMC44NSAgICAgIEM5LjY3LDcxLjU0LDExLjc2LDcxLjg4LDEzLjEsNzIuMzl6Ii8+JiN4YTsJCQk8L2c+JiN4YTsJCQk8ZyBpZD0ic2hhcGUxMTA2OS02NCIgdHJhbnNmb3JtPSJ0cmFuc2xhdGUoMS45MTAwNiwtNy44Nzk4NCkiPiYjeGE7CQkJCTx0aXRsZSBpZD0idGl0bGUyNjAyMjkiPlNoZWV0LjExMDY5PC90aXRsZT4mI3hhOwkJCQk8ZyBpZD0ic2hhZG93MTEwNjktNjUiIHRyYW5zZm9ybT0idHJhbnNsYXRlKDAuMzQ1NiwxLjk3MjgpIj4mI3hhOwkJCQkJPGcgaWQ9InBhdGgyNjAyMzEiIGlua3NjYXBlOmNvbm5lY3Rvci1jdXJ2YXR1cmU9IjAiIHN0eWxlPSJmaWx0ZXI6dXJsKCNmaWx0ZXJfMik7Ij4mI3hhOwkJCQkJCTxwYXRoIHN0eWxlPSJvcGFjaXR5OjAuMjI7ZmlsbDojNUI5QkQ1OyIgZD0iTTAsNzIuMzJoMS4xNnYtNC41OWwxLjgsNGMwLjIyLDAuNDksMC41MSwwLjY2LDEuMDgsMC42NnMwLjg1LTAuMTcsMS4wNi0wLjY2ICAgICAgICBsMS44LTR2NC41OWgxLjE2di00LjU4YzAtMC40NS0wLjE3LTAuNjctMC41NC0wLjc4Yy0wLjg5LTAuMjctMS40OC0wLjA0LTEuNzUsMC41Nkw0LDcxLjQ3bC0xLjcxLTMuOTUgICAgICAgIGMtMC4yNS0wLjYtMC44Ni0wLjgzLTEuNzQtMC41NkMwLjE4LDY3LjA3LDAsNjcuMjksMCw2Ny43NFY3Mi4zMnoiLz4mI3hhOwkJCQkJPC9nPiYjeGE7CQkJCTwvZz4mI3hhOwkJCQk8cGF0aCBpZD0icGF0aDI2MDIzNCIgaW5rc2NhcGU6Y29ubmVjdG9yLWN1cnZhdHVyZT0iMCIgc3R5bGU9ImZpbGw6I0ZGRkZGRjsiIGQ9Ik0wLDcyLjMyaDEuMTZ2LTQuNTlsMS44LDQgICAgICBjMC4yMiwwLjQ5LDAuNTEsMC42NiwxLjA4LDAuNjZzMC44NS0wLjE3LDEuMDYtMC42NmwxLjgtNHY0LjU5aDEuMTZ2LTQuNThjMC0wLjQ1LTAuMTctMC42Ny0wLjU0LTAuNzggICAgICBjLTAuODktMC4yNy0xLjQ4LTAuMDQtMS43NSwwLjU2TDQsNzEuNDdsLTEuNzEtMy45NWMtMC4yNS0wLjYtMC44Ni0wLjgzLTEuNzQtMC41NkMwLjE4LDY3LjA3LDAsNjcuMjksMCw2Ny43NFY3Mi4zMnoiLz4mI3hhOwkJCTwvZz4mI3hhOwkJCTxnIGlkPSJzaGFwZTExMDcwLTY5IiB0cmFuc2Zvcm09InRyYW5zbGF0ZSgxMC45NDE5LC02LjMyMTIpIj4mI3hhOwkJCQk8dGl0bGUgaWQ9InRpdGxlMjYwMjM3Ij5TaGVldC4xMTA3MDwvdGl0bGU+JiN4YTsJCQkJPGcgaWQ9InNoYWRvdzExMDcwLTcwIiB0cmFuc2Zvcm09InRyYW5zbGF0ZSgwLjM0NTYsMS45NzI4KSI+JiN4YTsJCQkJCTxnIGlkPSJwYXRoMjYwMjM5IiBpbmtzY2FwZTpjb25uZWN0b3ItY3VydmF0dXJlPSIwIiBzdHlsZT0iZmlsdGVyOnVybCgjZmlsdGVyXzIpOyI+JiN4YTsJCQkJCQk8cGF0aCBzdHlsZT0ib3BhY2l0eTowLjIyO2ZpbGw6IzVCOUJENTsiIGQ9Ik0wLDY3LjAzaDEuMTZ2Mi41M2MtMC4wMSwwLjEzLDAuMDUsMC40NiwwLjY4LDAuNDdjMC4zMywwLDIuNTEsMCwyLjUzLDB2LTMuMDIgICAgICAgIGgxLjE3YzAsMCwwLDQuMTEsMCw0LjEzYzAsMS4wMS0xLjI2LDEuMjMtMS44NCwxLjI1SDAuMDN2LTAuNzhIMy43YzAuNzUtMC4wOCwwLjY2LTAuNDUsMC42Ni0wLjU4di0wLjNIMS44OSAgICAgICAgQzAuNzQsNzAuNzIsMC4wMSw3MC4yMSwwLDY5LjY0QzAsNjkuNTgsMC4wMyw2Ny4wNSwwLDY3LjAzeiIvPiYjeGE7CQkJCQk8L2c+JiN4YTsJCQkJPC9nPiYjeGE7CQkJCTxwYXRoIGlkPSJwYXRoMjYwMjQyIiBpbmtzY2FwZTpjb25uZWN0b3ItY3VydmF0dXJlPSIwIiBzdHlsZT0iZmlsbDojRkZGRkZGOyIgZD0iTTAsNjcuMDNoMS4xNnYyLjUzICAgICAgYy0wLjAxLDAuMTMsMC4wNSwwLjQ2LDAuNjgsMC40N2MwLjMzLDAsMi41MSwwLDIuNTMsMHYtMy4wMmgxLjE3YzAsMCwwLDQuMTEsMCw0LjEzYzAsMS4wMS0xLjI2LDEuMjMtMS44NCwxLjI1SDAuMDN2LTAuNzhIMy43ICAgICAgYzAuNzUtMC4wOCwwLjY2LTAuNDUsMC42Ni0wLjU4di0wLjNIMS44OUMwLjc0LDcwLjcyLDAuMDEsNzAuMjEsMCw2OS42NEMwLDY5LjU4LDAuMDMsNjcuMDUsMCw2Ny4wM3oiLz4mI3hhOwkJCTwvZz4mI3hhOwkJPC9nPiYjeGE7CTwvZz4mI3hhOzwvZz4mI3hhOzwvc3ZnPg==;strokeWidth=3;" parent="8pe4ZQPsovDr-rk-gTb1-14" vertex="1">
          <mxGeometry x="70" y="70" width="114.93" height="170" as="geometry" />
        </mxCell>
        <mxCell id="8pe4ZQPsovDr-rk-gTb1-3" value="" style="shape=image;verticalLabelPosition=bottom;verticalAlign=top;aspect=fixed;imageAspect=0;image=data:image/svg+xml,PHN2ZyB4bWxuczpjYz0iaHR0cDovL2NyZWF0aXZlY29tbW9ucy5vcmcvbnMjIiB4bWxuczpkYz0iaHR0cDovL3B1cmwub3JnL2RjL2VsZW1lbnRzLzEuMS8iIHhtbG5zOmlua3NjYXBlPSJodHRwOi8vd3d3Lmlua3NjYXBlLm9yZy9uYW1lc3BhY2VzL2lua3NjYXBlIiB4bWxuczpyZGY9Imh0dHA6Ly93d3cudzMub3JnLzE5OTkvMDIvMjItcmRmLXN5bnRheC1ucyMiIHhtbG5zOnNvZGlwb2RpPSJodHRwOi8vc29kaXBvZGkuc291cmNlZm9yZ2UubmV0L0RURC9zb2RpcG9kaS0wLmR0ZCIgeG1sbnM6c3ZnPSJodHRwOi8vd3d3LnczLm9yZy8yMDAwL3N2ZyIgeG1sbnM9Imh0dHA6Ly93d3cudzMub3JnLzIwMDAvc3ZnIiB4bWxuczp4bGluaz0iaHR0cDovL3d3dy53My5vcmcvMTk5OS94bGluayIgdmVyc2lvbj0iMS4xIiBpZD0ic3ZnMjYwMjQ5IiBpbmtzY2FwZTp2ZXJzaW9uPSIwLjkyLjMgKDI0MDU1NDYsIDIwMTgtMDMtMTEpIiBzb2RpcG9kaTpkb2NuYW1lPSJteXNxbF9zZXJ2ZXIuc3ZnIiB4PSIwcHgiIHk9IjBweCIgdmlld0JveD0iMCAwIDQ4LjQxIDcwLjczIiBzdHlsZT0iZW5hYmxlLWJhY2tncm91bmQ6bmV3IDAgMCA0OC40MSA3MC43MzsiIHhtbDpzcGFjZT0icHJlc2VydmUiPiYjeGE7PGZpbHRlciBpZD0iZmlsdGVyXzIiPiYjeGE7CTxmZUdhdXNzaWFuQmx1ciBpZD0iZmVHYXVzc2lhbkJsdXIyNjAwOTIiIHN0ZERldmlhdGlvbj0iMiIvPiYjeGE7PC9maWx0ZXI+JiN4YTs8c29kaXBvZGk6bmFtZWR2aWV3IGJvcmRlcmNvbG9yPSIjNjY2NjY2IiBib3JkZXJvcGFjaXR5PSIxIiBmaXQtbWFyZ2luLWJvdHRvbT0iMCIgZml0LW1hcmdpbi1sZWZ0PSIwIiBmaXQtbWFyZ2luLXJpZ2h0PSIwIiBmaXQtbWFyZ2luLXRvcD0iMCIgZ3JpZHRvbGVyYW5jZT0iMTAiIGd1aWRldG9sZXJhbmNlPSIxMCIgaWQ9Im5hbWVkdmlldzI2MDI1MSIgaW5rc2NhcGU6Y3VycmVudC1sYXllcj0ic3ZnMjYwMjQ5IiBpbmtzY2FwZTpjeD0iMzIuMTkwODk3IiBpbmtzY2FwZTpjeT0iNDcuMDQ2MjQyIiBpbmtzY2FwZTpwYWdlb3BhY2l0eT0iMCIgaW5rc2NhcGU6cGFnZXNoYWRvdz0iMiIgaW5rc2NhcGU6d2luZG93LWhlaWdodD0iMTAxNyIgaW5rc2NhcGU6d2luZG93LW1heGltaXplZD0iMSIgaW5rc2NhcGU6d2luZG93LXdpZHRoPSIxOTIwIiBpbmtzY2FwZTp3aW5kb3cteD0iLTgiIGlua3NjYXBlOndpbmRvdy15PSItOCIgaW5rc2NhcGU6em9vbT0iOC45ODI0NzUzIiBvYmplY3R0b2xlcmFuY2U9IjEwIiBwYWdlY29sb3I9IiNmZmZmZmYiIHNob3dncmlkPSJmYWxzZSI+JiN4YTsJPC9zb2RpcG9kaTpuYW1lZHZpZXc+JiN4YTs8ZyBpZD0iZzI2MDI0NyIgdHJhbnNmb3JtPSJ0cmFuc2xhdGUoLTAuNzUsLTAuNzUwMjIyMTIpIj4mI3hhOwk8dGl0bGUgaWQ9InRpdGxlMjYwMDk2Ij5QYWdlLTE8L3RpdGxlPiYjeGE7CTxnIGlkPSJncm91cDExMDQ0LTEiIHRyYW5zZm9ybT0idHJhbnNsYXRlKDEuNSwtMi42MzMyMykiPiYjeGE7CQk8dGl0bGUgaWQ9InRpdGxlMjYwMDk4Ij5NeVNRTCBTZXJ2ZXI8L3RpdGxlPiYjeGE7CQk8ZyBpZD0iZ3JvdXAxMTA0NS0yIj4mI3hhOwkJCTx0aXRsZSBpZD0idGl0bGUyNjAxMDAiPkdlbmVyaWMgU2VydmljZTwvdGl0bGU+JiN4YTsJCQk8ZyBpZD0iZ3JvdXAxMTA0Ni0zIiB0cmFuc2Zvcm09InRyYW5zbGF0ZSgwLC0wLjAwNzM5ODc2KSI+JiN4YTsJCQkJPHRpdGxlIGlkPSJ0aXRsZTI2MDEwMiI+ZzE1NDMzLjExNzIxPC90aXRsZT4mI3hhOwkJCQk8ZyBpZD0ic2hhcGUxMTA0Ny00Ij4mI3hhOwkJCQkJPHRpdGxlIGlkPSJ0aXRsZTI2MDEwNCI+cmVjdDE1NDA1PC90aXRsZT4mI3hhOwkJCQkJJiN4YTsJCQkJCQk8cmVjdCBpZD0icmVjdDI2MDEwNiIgeT0iNC4xNCIgc3R5bGU9ImZpbGw6I0ZGRkZGRjtzdHJva2U6IzU1NkE4QTtzdHJva2Utd2lkdGg6MS41O3N0cm9rZS1taXRlcmxpbWl0OjM7IiB3aWR0aD0iMzkuNzUiIGhlaWdodD0iNjguMjUiLz4mI3hhOwkJCQk8L2c+JiN4YTsJCQkJPGcgaWQ9Imdyb3VwMTEwNDgtNiIgdHJhbnNmb3JtPSJ0cmFuc2xhdGUoMS41LC0wLjc1KSI+JiN4YTsJCQkJCTx0aXRsZSBpZD0idGl0bGUyNjAxMDkiPmcxNTQyNTwvdGl0bGU+JiN4YTsJCQkJCTxnIGlkPSJzaGFwZTExMDQ5LTciIHRyYW5zZm9ybT0idHJhbnNsYXRlKDE4KSI+JiN4YTsJCQkJCQk8dGl0bGUgaWQ9InRpdGxlMjYwMTExIj5yZWN0MTU0MDc8L3RpdGxlPiYjeGE7CQkJCQkJPHJlY3QgaWQ9InJlY3QyNjAxMTMiIHk9IjUuNjQiIHN0eWxlPSJmaWxsOiNFNUU1RTU7IiB3aWR0aD0iMTkuNSIgaGVpZ2h0PSI2Ni43NSIvPiYjeGE7CQkJCQk8L2c+JiN4YTsJCQkJCTxnIGlkPSJzaGFwZTExMDUwLTkiIHRyYW5zZm9ybT0idHJhbnNsYXRlKDAsLTQ4KSI+JiN4YTsJCQkJCQk8dGl0bGUgaWQ9InRpdGxlMjYwMTE2Ij5yZWN0MTU0MDk8L3RpdGxlPiYjeGE7CQkJCQkJPHJlY3QgaWQ9InJlY3QyNjAxMTgiIHk9IjcwLjE0IiBzdHlsZT0iZmlsbDojMkJDN0Y0OyIgd2lkdGg9IjE4IiBoZWlnaHQ9IjIuMjUiLz4mI3hhOwkJCQkJPC9nPiYjeGE7CQkJCQk8ZyBpZD0ic2hhcGUxMTA1MS0xMSIgdHJhbnNmb3JtPSJ0cmFuc2xhdGUoMCwtNTguNSkiPiYjeGE7CQkJCQkJPHRpdGxlIGlkPSJ0aXRsZTI2MDEyMSI+cG9seWdvbjE1NDExPC90aXRsZT4mI3hhOwkJCQkJCTxyZWN0IGlkPSJyZWN0MjYwMTIzIiB5PSI3MC4xNCIgc3R5bGU9ImZpbGw6bm9uZTsiIHdpZHRoPSIyNyIgaGVpZ2h0PSIyLjI1Ii8+JiN4YTsJCQkJCTwvZz4mI3hhOwkJCQkJPGcgaWQ9InNoYXBlMTEwNTItMTMiIHRyYW5zZm9ybT0idHJhbnNsYXRlKDAsLTU4LjUpIj4mI3hhOwkJCQkJCTx0aXRsZSBpZD0idGl0bGUyNjAxMjYiPnBvbHlsaW5lMTU0MTM8L3RpdGxlPiYjeGE7CQkJCQkJPHJlY3QgaWQ9InJlY3QyNjAxMjgiIHk9IjcwLjE0IiBzdHlsZT0iZmlsbDpub25lOyIgd2lkdGg9IjI3IiBoZWlnaHQ9IjIuMjUiLz4mI3hhOwkJCQkJPC9nPiYjeGE7CQkJCQk8ZyBpZD0ic2hhcGUxMTA1My0xNSIgdHJhbnNmb3JtPSJ0cmFuc2xhdGUoMCwtNTMuMjUpIj4mI3hhOwkJCQkJCTx0aXRsZSBpZD0idGl0bGUyNjAxMzEiPnJlY3QxNTQxNTwvdGl0bGU+JiN4YTsJCQkJCQk8cmVjdCBpZD0icmVjdDI2MDEzMyIgeT0iNzAuMTQiIHN0eWxlPSJmaWxsOiMyQkM3RjQ7IiB3aWR0aD0iMTgiIGhlaWdodD0iMi4yNSIvPiYjeGE7CQkJCQk8L2c+JiN4YTsJCQkJCTxnIGlkPSJzaGFwZTExMDU0LTE3IiB0cmFuc2Zvcm09InRyYW5zbGF0ZSgwLC01OC41KSI+JiN4YTsJCQkJCQk8dGl0bGUgaWQ9InRpdGxlMjYwMTM2Ij5yZWN0MTU0MTc8L3RpdGxlPiYjeGE7CQkJCQkJPHJlY3QgaWQ9InJlY3QyNjAxMzgiIHk9IjcwLjE0IiBzdHlsZT0iZmlsbDojMkJDN0Y0OyIgd2lkdGg9IjE4IiBoZWlnaHQ9IjIuMjUiLz4mI3hhOwkJCQkJPC9nPiYjeGE7CQkJCQk8ZyBpZD0ic2hhcGUxMTA1NS0xOSIgdHJhbnNmb3JtPSJ0cmFuc2xhdGUoMTgsLTQ4KSI+JiN4YTsJCQkJCQk8dGl0bGUgaWQ9InRpdGxlMjYwMTQxIj5yZWN0MTU0MTk8L3RpdGxlPiYjeGE7CQkJCQkJPHJlY3QgaWQ9InJlY3QyNjAxNDMiIHk9IjcwLjE0IiBzdHlsZT0iZmlsbDojNTU2QThBOyIgd2lkdGg9IjE5LjUiIGhlaWdodD0iMi4yNSIvPiYjeGE7CQkJCQk8L2c+JiN4YTsJCQkJCTxnIGlkPSJzaGFwZTExMDU2LTIxIiB0cmFuc2Zvcm09InRyYW5zbGF0ZSgxOCwtNTMuMjUpIj4mI3hhOwkJCQkJCTx0aXRsZSBpZD0idGl0bGUyNjAxNDYiPnJlY3QxNTQyMTwvdGl0bGU+JiN4YTsJCQkJCQk8cmVjdCBpZD0icmVjdDI2MDE0OCIgeT0iNzAuMTQiIHN0eWxlPSJmaWxsOiM1NTZBOEE7IiB3aWR0aD0iMTkuNSIgaGVpZ2h0PSIyLjI1Ii8+JiN4YTsJCQkJCTwvZz4mI3hhOwkJCQkJPGcgaWQ9InNoYXBlMTEwNTctMjMiIHRyYW5zZm9ybT0idHJhbnNsYXRlKDE4LC01OC41KSI+JiN4YTsJCQkJCQk8dGl0bGUgaWQ9InRpdGxlMjYwMTUxIj5yZWN0MTU0MjM8L3RpdGxlPiYjeGE7CQkJCQkJPHJlY3QgaWQ9InJlY3QyNjAxNTMiIHk9IjcwLjE0IiBzdHlsZT0iZmlsbDojNTU2QThBOyIgd2lkdGg9IjE5LjUiIGhlaWdodD0iMi4yNSIvPiYjeGE7CQkJCQk8L2c+JiN4YTsJCQkJPC9nPiYjeGE7CQkJCTxnIGlkPSJzaGFwZTExMDU4LTI1IiB0cmFuc2Zvcm09InRyYW5zbGF0ZSgwLjc1LC01OS4yNSkiPiYjeGE7CQkJCQk8dGl0bGUgaWQ9InRpdGxlMjYwMTU3Ij5yZWN0MTU0Mjc8L3RpdGxlPiYjeGE7CQkJCQk8cmVjdCBpZD0icmVjdDI2MDE1OSIgeT0iNzAuMTQiIHN0eWxlPSJmaWxsOiM1NTZBOEE7IiB3aWR0aD0iMi4yNSIgaGVpZ2h0PSIyLjI1Ii8+JiN4YTsJCQkJPC9nPiYjeGE7CQkJCTxnIGlkPSJzaGFwZTExMDU5LTI3IiB0cmFuc2Zvcm09InRyYW5zbGF0ZSgwLjc1LC01NCkiPiYjeGE7CQkJCQk8dGl0bGUgaWQ9InRpdGxlMjYwMTYyIj5yZWN0MTU0Mjk8L3RpdGxlPiYjeGE7CQkJCQk8cmVjdCBpZD0icmVjdDI2MDE2NCIgeT0iNzAuMTQiIHN0eWxlPSJmaWxsOiM1NTZBOEE7IiB3aWR0aD0iMi4yNSIgaGVpZ2h0PSIyLjI1Ii8+JiN4YTsJCQkJPC9nPiYjeGE7CQkJCTxnIGlkPSJzaGFwZTExMDYwLTI5IiB0cmFuc2Zvcm09InRyYW5zbGF0ZSgwLjc1LC00OC43NSkiPiYjeGE7CQkJCQk8dGl0bGUgaWQ9InRpdGxlMjYwMTY3Ij5yZWN0MTU0MzE8L3RpdGxlPiYjeGE7CQkJCQk8cmVjdCBpZD0icmVjdDI2MDE2OSIgeT0iNzAuMTQiIHN0eWxlPSJmaWxsOiM1NTZBOEE7IiB3aWR0aD0iMi4yNSIgaGVpZ2h0PSIyLjI1Ii8+JiN4YTsJCQkJPC9nPiYjeGE7CQkJPC9nPiYjeGE7CQkJPGcgaWQ9InNoYXBlMTEwNjEtMzEiIHRyYW5zZm9ybT0idHJhbnNsYXRlKDEzLjY5ODMpIj4mI3hhOwkJCQk8dGl0bGUgaWQ9InRpdGxlMjYwMTczIj5wb2x5Z29uMTU0MzUuMTE3Mzc8L3RpdGxlPiYjeGE7CQkJCSYjeGE7CQkJCQk8cGF0aCBpZD0icGF0aDI2MDE3NSIgaW5rc2NhcGU6Y29ubmVjdG9yLWN1cnZhdHVyZT0iMCIgc3R5bGU9ImZpbGw6I0ZGRkZGRjtzdHJva2U6I0VBNzAwRDtzdHJva2Utd2lkdGg6MS41O3N0cm9rZS1taXRlcmxpbWl0OjM7IiBkPSIgICAgICBNOC4yNyw3Mi4zOUwwLDU4LjE2bDguMjctMTQuMjRoMTYuNTVsOC4yNywxNC4yNGwtOC4yNywxNC4yM0g4LjI3eiIvPiYjeGE7CQkJPC9nPiYjeGE7CQk8L2c+JiN4YTsJCTxnIGlkPSJncm91cDExMDYyLTMzIiB0cmFuc2Zvcm09InRyYW5zbGF0ZSgyMS4yOTEyLC0yLjMzOTU1KSI+JiN4YTsJCQk8dGl0bGUgaWQ9InRpdGxlMjYwMTc5Ij5NeVNRTDwvdGl0bGU+JiN4YTsJCQk8ZyBpZD0ic2hhcGUxMTA2My0zNCI+JiN4YTsJCQkJPHRpdGxlIGlkPSJ0aXRsZTI2MDE4MSI+U2hlZXQuMTEwNjM8L3RpdGxlPiYjeGE7CQkJCTxnIGlkPSJzaGFkb3cxMTA2My0zNSIgdHJhbnNmb3JtPSJ0cmFuc2xhdGUoMC4zNDU2LDEuOTcyOCkiPiYjeGE7CQkJCQk8ZyBpZD0icGF0aDI2MDE4MyIgaW5rc2NhcGU6Y29ubmVjdG9yLWN1cnZhdHVyZT0iMCIgc3R5bGU9ImZpbHRlcjp1cmwoI2ZpbHRlcl8yKTsiPiYjeGE7CQkJCQkJPHBhdGggc3R5bGU9Im9wYWNpdHk6MC4yMjtmaWxsOiM1QjlCRDU7IiBkPSJNMCw1MS40OXYxNy41OWMwLDEuODMsNC4xMiwzLjMxLDkuMiwzLjMxdi0yMC45TDAsNTEuNDl6Ii8+JiN4YTsJCQkJCTwvZz4mI3hhOwkJCQk8L2c+JiN4YTsJCQkJPHBhdGggaWQ9InBhdGgyNjAxODYiIGlua3NjYXBlOmNvbm5lY3Rvci1jdXJ2YXR1cmU9IjAiIHN0eWxlPSJmaWxsOiMwMDcyQzY7IiBkPSJNMCw1MS40OXYxNy41OWMwLDEuODMsNC4xMiwzLjMxLDkuMiwzLjMxICAgICAgdi0yMC45TDAsNTEuNDl6Ii8+JiN4YTsJCQk8L2c+JiN4YTsJCQk8ZyBpZD0ic2hhcGUxMTA2NC0zOSIgdHJhbnNmb3JtPSJ0cmFuc2xhdGUoOS4wNzEwOCwtNC44NDA0OWUtNCkiPiYjeGE7CQkJCTx0aXRsZSBpZD0idGl0bGUyNjAxODkiPlNoZWV0LjExMDY0PC90aXRsZT4mI3hhOwkJCQk8ZyBpZD0ic2hhZG93MTEwNjQtNDAiIHRyYW5zZm9ybT0idHJhbnNsYXRlKDAuMzQ1NiwxLjk3MjgpIj4mI3hhOwkJCQkJPGcgaWQ9InBhdGgyNjAxOTEiIGlua3NjYXBlOmNvbm5lY3Rvci1jdXJ2YXR1cmU9IjAiIHN0eWxlPSJmaWx0ZXI6dXJsKCNmaWx0ZXJfMik7Ij4mI3hhOwkJCQkJCTxwYXRoIHN0eWxlPSJvcGFjaXR5OjAuMjI7ZmlsbDojNUI5QkQ1OyIgZD0iTTAsNzIuMzloMC4xM2M1LjA3LDAsOS4xOS0xLjQ4LDkuMTktMy4zMVY1MS41SDBWNzIuMzl6Ii8+JiN4YTsJCQkJCTwvZz4mI3hhOwkJCQk8L2c+JiN4YTsJCQkJPHBhdGggaWQ9InBhdGgyNjAxOTQiIGlua3NjYXBlOmNvbm5lY3Rvci1jdXJ2YXR1cmU9IjAiIHN0eWxlPSJmaWxsOiMwMDcyQzY7IiBkPSJNMCw3Mi4zOWgwLjEzYzUuMDcsMCw5LjE5LTEuNDgsOS4xOS0zLjMxICAgICAgVjUxLjVIMFY3Mi4zOXoiLz4mI3hhOwkJCTwvZz4mI3hhOwkJCTxnIGlkPSJzaGFwZTExMDY1LTQ0IiB0cmFuc2Zvcm09InRyYW5zbGF0ZSg5LjA3MTA4LC00Ljg0MDQ5ZS00KSI+JiN4YTsJCQkJPHRpdGxlIGlkPSJ0aXRsZTI2MDE5NyI+U2hlZXQuMTEwNjU8L3RpdGxlPiYjeGE7CQkJCTxnIGlkPSJzaGFkb3cxMTA2NS00NSIgdHJhbnNmb3JtPSJ0cmFuc2xhdGUoMC4zNDU2LDEuOTcyOCkiPiYjeGE7CQkJCQk8ZyBpZD0icGF0aDI2MDE5OSIgaW5rc2NhcGU6Y29ubmVjdG9yLWN1cnZhdHVyZT0iMCIgc3R5bGU9ImZpbHRlcjp1cmwoI2ZpbHRlcl8yKTsiPiYjeGE7CQkJCQkJPHBhdGggc3R5bGU9Im9wYWNpdHk6MC4yMjtmaWxsOiM1QjlCRDU7IiBkPSJNMCw3Mi4zOWgwLjEzYzUuMDcsMCw5LjE5LTEuNDgsOS4xOS0zLjMxVjUxLjVIMFY3Mi4zOXoiLz4mI3hhOwkJCQkJPC9nPiYjeGE7CQkJCTwvZz4mI3hhOwkJCQk8cGF0aCBpZD0icGF0aDI2MDIwMiIgaW5rc2NhcGU6Y29ubmVjdG9yLWN1cnZhdHVyZT0iMCIgc3R5bGU9ImZpbGw6I0ZGRkZGRjtmaWxsLW9wYWNpdHk6MC4xNTsiIGQ9Ik0wLDcyLjM5aDAuMTMgICAgICBjNS4wNywwLDkuMTktMS40OCw5LjE5LTMuMzFWNTEuNUgwVjcyLjM5eiIvPiYjeGE7CQkJPC9nPiYjeGE7CQkJPGcgaWQ9InNoYXBlMTEwNjYtNDkiIHRyYW5zZm9ybT0idHJhbnNsYXRlKDAsLTE3LjU4OTQpIj4mI3hhOwkJCQk8dGl0bGUgaWQ9InRpdGxlMjYwMjA1Ij5TaGVldC4xMTA2NjwvdGl0bGU+JiN4YTsJCQkJPGcgaWQ9InNoYWRvdzExMDY2LTUwIiB0cmFuc2Zvcm09InRyYW5zbGF0ZSgwLjM0NTYsMS45NzI4KSI+JiN4YTsJCQkJCTxnIGlkPSJwYXRoMjYwMjA3IiBpbmtzY2FwZTpjb25uZWN0b3ItY3VydmF0dXJlPSIwIiBzdHlsZT0iZmlsdGVyOnVybCgjZmlsdGVyXzIpOyI+JiN4YTsJCQkJCQk8cGF0aCBzdHlsZT0ib3BhY2l0eTowLjIyO2ZpbGw6IzVCOUJENTsiIGQ9Ik0xOC4zOSw2OS4wOGMwLDEuODMtNC4xMSwzLjMxLTkuMTksMy4zMVMwLDcwLjkxLDAsNjkuMDggICAgICAgIGMwLTEuODIsNC4xMi0zLjMsOS4yLTMuM1MxOC4zOSw2Ny4yNiwxOC4zOSw2OS4wOHoiLz4mI3hhOwkJCQkJPC9nPiYjeGE7CQkJCTwvZz4mI3hhOwkJCQk8cGF0aCBpZD0icGF0aDI2MDIxMCIgaW5rc2NhcGU6Y29ubmVjdG9yLWN1cnZhdHVyZT0iMCIgc3R5bGU9ImZpbGw6I0ZGRkZGRjsiIGQ9Ik0xOC4zOSw2OS4wOGMwLDEuODMtNC4xMSwzLjMxLTkuMTksMy4zMSAgICAgIFMwLDcwLjkxLDAsNjkuMDhjMC0xLjgyLDQuMTItMy4zLDkuMi0zLjNTMTguMzksNjcuMjYsMTguMzksNjkuMDh6Ii8+JiN4YTsJCQk8L2c+JiN4YTsJCQk8ZyBpZD0ic2hhcGUxMTA2Ny01NCIgdHJhbnNmb3JtPSJ0cmFuc2xhdGUoMS44ODAwNSwtMTguOTA0NSkiPiYjeGE7CQkJCTx0aXRsZSBpZD0idGl0bGUyNjAyMTMiPlNoZWV0LjExMDY3PC90aXRsZT4mI3hhOwkJCQk8ZyBpZD0ic2hhZG93MTEwNjctNTUiIHRyYW5zZm9ybT0idHJhbnNsYXRlKDAuMzQ1NiwxLjk3MjgpIj4mI3hhOwkJCQkJPGcgaWQ9InBhdGgyNjAyMTUiIGlua3NjYXBlOmNvbm5lY3Rvci1jdXJ2YXR1cmU9IjAiIHN0eWxlPSJmaWx0ZXI6dXJsKCNmaWx0ZXJfMik7Ij4mI3hhOwkJCQkJCTxwYXRoIHN0eWxlPSJvcGFjaXR5OjAuMjI7ZmlsbDojNUI5QkQ1OyIgZD0iTTE0LjYzLDcwLjIxYzAsMS4yLTMuMjcsMi4xOC03LjMxLDIuMThTMCw3MS40MSwwLDcwLjIxICAgICAgICBjMC0xLjIxLDMuMjgtMi4xOCw3LjMyLTIuMThTMTQuNjMsNjksMTQuNjMsNzAuMjF6Ii8+JiN4YTsJCQkJCTwvZz4mI3hhOwkJCQk8L2c+JiN4YTsJCQkJPHBhdGggaWQ9InBhdGgyNjAyMTgiIGlua3NjYXBlOmNvbm5lY3Rvci1jdXJ2YXR1cmU9IjAiIHN0eWxlPSJmaWxsOiNERDU5MDA7IiBkPSJNMTQuNjMsNzAuMjFjMCwxLjItMy4yNywyLjE4LTcuMzEsMi4xOCAgICAgIFMwLDcxLjQxLDAsNzAuMjFjMC0xLjIxLDMuMjgtMi4xOCw3LjMyLTIuMThTMTQuNjMsNjksMTQuNjMsNzAuMjF6Ii8+JiN4YTsJCQk8L2c+JiN4YTsJCQk8ZyBpZD0ic2hhcGUxMTA2OC01OSIgdHJhbnNmb3JtPSJ0cmFuc2xhdGUoMS44ODEwMiwtMTkuNzUzNikiPiYjeGE7CQkJCTx0aXRsZSBpZD0idGl0bGUyNjAyMjEiPlNoZWV0LjExMDY4PC90aXRsZT4mI3hhOwkJCQk8ZyBpZD0ic2hhZG93MTEwNjgtNjAiIHRyYW5zZm9ybT0idHJhbnNsYXRlKDAuMzQ1NiwxLjk3MjgpIj4mI3hhOwkJCQkJPGcgaWQ9InBhdGgyNjAyMjMiIGlua3NjYXBlOmNvbm5lY3Rvci1jdXJ2YXR1cmU9IjAiIHN0eWxlPSJmaWx0ZXI6dXJsKCNmaWx0ZXJfMik7Ij4mI3hhOwkJCQkJCTxwYXRoIHN0eWxlPSJvcGFjaXR5OjAuMjI7ZmlsbDojNUI5QkQ1OyIgZD0iTTEzLjEsNzIuMzljMC45Ni0wLjM3LDEuNTMtMC44MywxLjUzLTEuMzNjMC0xLjIxLTMuMjctMi4xOC03LjMxLTIuMTggICAgICAgIFMwLDY5Ljg1LDAsNzEuMDZjMCwwLjUsMC41OCwwLjk2LDEuNTMsMS4zM2MxLjM0LTAuNTEsMy40My0wLjg1LDUuNzktMC44NUM5LjY3LDcxLjU0LDExLjc2LDcxLjg4LDEzLjEsNzIuMzl6Ii8+JiN4YTsJCQkJCTwvZz4mI3hhOwkJCQk8L2c+JiN4YTsJCQkJPHBhdGggaWQ9InBhdGgyNjAyMjYiIGlua3NjYXBlOmNvbm5lY3Rvci1jdXJ2YXR1cmU9IjAiIHN0eWxlPSJmaWxsOiNGRjhDMDA7IiBkPSJNMTMuMSw3Mi4zOWMwLjk2LTAuMzcsMS41My0wLjgzLDEuNTMtMS4zMyAgICAgIGMwLTEuMjEtMy4yNy0yLjE4LTcuMzEtMi4xOFMwLDY5Ljg1LDAsNzEuMDZjMCwwLjUsMC41OCwwLjk2LDEuNTMsMS4zM2MxLjM0LTAuNTEsMy40My0wLjg1LDUuNzktMC44NSAgICAgIEM5LjY3LDcxLjU0LDExLjc2LDcxLjg4LDEzLjEsNzIuMzl6Ii8+JiN4YTsJCQk8L2c+JiN4YTsJCQk8ZyBpZD0ic2hhcGUxMTA2OS02NCIgdHJhbnNmb3JtPSJ0cmFuc2xhdGUoMS45MTAwNiwtNy44Nzk4NCkiPiYjeGE7CQkJCTx0aXRsZSBpZD0idGl0bGUyNjAyMjkiPlNoZWV0LjExMDY5PC90aXRsZT4mI3hhOwkJCQk8ZyBpZD0ic2hhZG93MTEwNjktNjUiIHRyYW5zZm9ybT0idHJhbnNsYXRlKDAuMzQ1NiwxLjk3MjgpIj4mI3hhOwkJCQkJPGcgaWQ9InBhdGgyNjAyMzEiIGlua3NjYXBlOmNvbm5lY3Rvci1jdXJ2YXR1cmU9IjAiIHN0eWxlPSJmaWx0ZXI6dXJsKCNmaWx0ZXJfMik7Ij4mI3hhOwkJCQkJCTxwYXRoIHN0eWxlPSJvcGFjaXR5OjAuMjI7ZmlsbDojNUI5QkQ1OyIgZD0iTTAsNzIuMzJoMS4xNnYtNC41OWwxLjgsNGMwLjIyLDAuNDksMC41MSwwLjY2LDEuMDgsMC42NnMwLjg1LTAuMTcsMS4wNi0wLjY2ICAgICAgICBsMS44LTR2NC41OWgxLjE2di00LjU4YzAtMC40NS0wLjE3LTAuNjctMC41NC0wLjc4Yy0wLjg5LTAuMjctMS40OC0wLjA0LTEuNzUsMC41Nkw0LDcxLjQ3bC0xLjcxLTMuOTUgICAgICAgIGMtMC4yNS0wLjYtMC44Ni0wLjgzLTEuNzQtMC41NkMwLjE4LDY3LjA3LDAsNjcuMjksMCw2Ny43NFY3Mi4zMnoiLz4mI3hhOwkJCQkJPC9nPiYjeGE7CQkJCTwvZz4mI3hhOwkJCQk8cGF0aCBpZD0icGF0aDI2MDIzNCIgaW5rc2NhcGU6Y29ubmVjdG9yLWN1cnZhdHVyZT0iMCIgc3R5bGU9ImZpbGw6I0ZGRkZGRjsiIGQ9Ik0wLDcyLjMyaDEuMTZ2LTQuNTlsMS44LDQgICAgICBjMC4yMiwwLjQ5LDAuNTEsMC42NiwxLjA4LDAuNjZzMC44NS0wLjE3LDEuMDYtMC42NmwxLjgtNHY0LjU5aDEuMTZ2LTQuNThjMC0wLjQ1LTAuMTctMC42Ny0wLjU0LTAuNzggICAgICBjLTAuODktMC4yNy0xLjQ4LTAuMDQtMS43NSwwLjU2TDQsNzEuNDdsLTEuNzEtMy45NWMtMC4yNS0wLjYtMC44Ni0wLjgzLTEuNzQtMC41NkMwLjE4LDY3LjA3LDAsNjcuMjksMCw2Ny43NFY3Mi4zMnoiLz4mI3hhOwkJCTwvZz4mI3hhOwkJCTxnIGlkPSJzaGFwZTExMDcwLTY5IiB0cmFuc2Zvcm09InRyYW5zbGF0ZSgxMC45NDE5LC02LjMyMTIpIj4mI3hhOwkJCQk8dGl0bGUgaWQ9InRpdGxlMjYwMjM3Ij5TaGVldC4xMTA3MDwvdGl0bGU+JiN4YTsJCQkJPGcgaWQ9InNoYWRvdzExMDcwLTcwIiB0cmFuc2Zvcm09InRyYW5zbGF0ZSgwLjM0NTYsMS45NzI4KSI+JiN4YTsJCQkJCTxnIGlkPSJwYXRoMjYwMjM5IiBpbmtzY2FwZTpjb25uZWN0b3ItY3VydmF0dXJlPSIwIiBzdHlsZT0iZmlsdGVyOnVybCgjZmlsdGVyXzIpOyI+JiN4YTsJCQkJCQk8cGF0aCBzdHlsZT0ib3BhY2l0eTowLjIyO2ZpbGw6IzVCOUJENTsiIGQ9Ik0wLDY3LjAzaDEuMTZ2Mi41M2MtMC4wMSwwLjEzLDAuMDUsMC40NiwwLjY4LDAuNDdjMC4zMywwLDIuNTEsMCwyLjUzLDB2LTMuMDIgICAgICAgIGgxLjE3YzAsMCwwLDQuMTEsMCw0LjEzYzAsMS4wMS0xLjI2LDEuMjMtMS44NCwxLjI1SDAuMDN2LTAuNzhIMy43YzAuNzUtMC4wOCwwLjY2LTAuNDUsMC42Ni0wLjU4di0wLjNIMS44OSAgICAgICAgQzAuNzQsNzAuNzIsMC4wMSw3MC4yMSwwLDY5LjY0QzAsNjkuNTgsMC4wMyw2Ny4wNSwwLDY3LjAzeiIvPiYjeGE7CQkJCQk8L2c+JiN4YTsJCQkJPC9nPiYjeGE7CQkJCTxwYXRoIGlkPSJwYXRoMjYwMjQyIiBpbmtzY2FwZTpjb25uZWN0b3ItY3VydmF0dXJlPSIwIiBzdHlsZT0iZmlsbDojRkZGRkZGOyIgZD0iTTAsNjcuMDNoMS4xNnYyLjUzICAgICAgYy0wLjAxLDAuMTMsMC4wNSwwLjQ2LDAuNjgsMC40N2MwLjMzLDAsMi41MSwwLDIuNTMsMHYtMy4wMmgxLjE3YzAsMCwwLDQuMTEsMCw0LjEzYzAsMS4wMS0xLjI2LDEuMjMtMS44NCwxLjI1SDAuMDN2LTAuNzhIMy43ICAgICAgYzAuNzUtMC4wOCwwLjY2LTAuNDUsMC42Ni0wLjU4di0wLjNIMS44OUMwLjc0LDcwLjcyLDAuMDEsNzAuMjEsMCw2OS42NEMwLDY5LjU4LDAuMDMsNjcuMDUsMCw2Ny4wM3oiLz4mI3hhOwkJCTwvZz4mI3hhOwkJPC9nPiYjeGE7CTwvZz4mI3hhOzwvZz4mI3hhOzwvc3ZnPg==;strokeWidth=3;imageBorder=none;" parent="8pe4ZQPsovDr-rk-gTb1-14" vertex="1">
          <mxGeometry x="70" y="260" width="114.93" height="170" as="geometry" />
        </mxCell>
        <mxCell id="8pe4ZQPsovDr-rk-gTb1-4" value="" style="shape=image;verticalLabelPosition=bottom;verticalAlign=top;aspect=fixed;imageAspect=0;image=data:image/svg+xml,PHN2ZyB4bWxuczpjYz0iaHR0cDovL2NyZWF0aXZlY29tbW9ucy5vcmcvbnMjIiB4bWxuczpkYz0iaHR0cDovL3B1cmwub3JnL2RjL2VsZW1lbnRzLzEuMS8iIHhtbG5zOmlua3NjYXBlPSJodHRwOi8vd3d3Lmlua3NjYXBlLm9yZy9uYW1lc3BhY2VzL2lua3NjYXBlIiB4bWxuczpyZGY9Imh0dHA6Ly93d3cudzMub3JnLzE5OTkvMDIvMjItcmRmLXN5bnRheC1ucyMiIHhtbG5zOnNvZGlwb2RpPSJodHRwOi8vc29kaXBvZGkuc291cmNlZm9yZ2UubmV0L0RURC9zb2RpcG9kaS0wLmR0ZCIgeG1sbnM6c3ZnPSJodHRwOi8vd3d3LnczLm9yZy8yMDAwL3N2ZyIgeG1sbnM9Imh0dHA6Ly93d3cudzMub3JnLzIwMDAvc3ZnIiB4bWxuczp4bGluaz0iaHR0cDovL3d3dy53My5vcmcvMTk5OS94bGluayIgdmVyc2lvbj0iMS4xIiBpZD0ic3ZnMjYwMjQ5IiBpbmtzY2FwZTp2ZXJzaW9uPSIwLjkyLjMgKDI0MDU1NDYsIDIwMTgtMDMtMTEpIiBzb2RpcG9kaTpkb2NuYW1lPSJteXNxbF9zZXJ2ZXIuc3ZnIiB4PSIwcHgiIHk9IjBweCIgdmlld0JveD0iMCAwIDQ4LjQxIDcwLjczIiBzdHlsZT0iZW5hYmxlLWJhY2tncm91bmQ6bmV3IDAgMCA0OC40MSA3MC43MzsiIHhtbDpzcGFjZT0icHJlc2VydmUiPiYjeGE7PGZpbHRlciBpZD0iZmlsdGVyXzIiPiYjeGE7CTxmZUdhdXNzaWFuQmx1ciBpZD0iZmVHYXVzc2lhbkJsdXIyNjAwOTIiIHN0ZERldmlhdGlvbj0iMiIvPiYjeGE7PC9maWx0ZXI+JiN4YTs8c29kaXBvZGk6bmFtZWR2aWV3IGJvcmRlcmNvbG9yPSIjNjY2NjY2IiBib3JkZXJvcGFjaXR5PSIxIiBmaXQtbWFyZ2luLWJvdHRvbT0iMCIgZml0LW1hcmdpbi1sZWZ0PSIwIiBmaXQtbWFyZ2luLXJpZ2h0PSIwIiBmaXQtbWFyZ2luLXRvcD0iMCIgZ3JpZHRvbGVyYW5jZT0iMTAiIGd1aWRldG9sZXJhbmNlPSIxMCIgaWQ9Im5hbWVkdmlldzI2MDI1MSIgaW5rc2NhcGU6Y3VycmVudC1sYXllcj0ic3ZnMjYwMjQ5IiBpbmtzY2FwZTpjeD0iMzIuMTkwODk3IiBpbmtzY2FwZTpjeT0iNDcuMDQ2MjQyIiBpbmtzY2FwZTpwYWdlb3BhY2l0eT0iMCIgaW5rc2NhcGU6cGFnZXNoYWRvdz0iMiIgaW5rc2NhcGU6d2luZG93LWhlaWdodD0iMTAxNyIgaW5rc2NhcGU6d2luZG93LW1heGltaXplZD0iMSIgaW5rc2NhcGU6d2luZG93LXdpZHRoPSIxOTIwIiBpbmtzY2FwZTp3aW5kb3cteD0iLTgiIGlua3NjYXBlOndpbmRvdy15PSItOCIgaW5rc2NhcGU6em9vbT0iOC45ODI0NzUzIiBvYmplY3R0b2xlcmFuY2U9IjEwIiBwYWdlY29sb3I9IiNmZmZmZmYiIHNob3dncmlkPSJmYWxzZSI+JiN4YTsJPC9zb2RpcG9kaTpuYW1lZHZpZXc+JiN4YTs8ZyBpZD0iZzI2MDI0NyIgdHJhbnNmb3JtPSJ0cmFuc2xhdGUoLTAuNzUsLTAuNzUwMjIyMTIpIj4mI3hhOwk8dGl0bGUgaWQ9InRpdGxlMjYwMDk2Ij5QYWdlLTE8L3RpdGxlPiYjeGE7CTxnIGlkPSJncm91cDExMDQ0LTEiIHRyYW5zZm9ybT0idHJhbnNsYXRlKDEuNSwtMi42MzMyMykiPiYjeGE7CQk8dGl0bGUgaWQ9InRpdGxlMjYwMDk4Ij5NeVNRTCBTZXJ2ZXI8L3RpdGxlPiYjeGE7CQk8ZyBpZD0iZ3JvdXAxMTA0NS0yIj4mI3hhOwkJCTx0aXRsZSBpZD0idGl0bGUyNjAxMDAiPkdlbmVyaWMgU2VydmljZTwvdGl0bGU+JiN4YTsJCQk8ZyBpZD0iZ3JvdXAxMTA0Ni0zIiB0cmFuc2Zvcm09InRyYW5zbGF0ZSgwLC0wLjAwNzM5ODc2KSI+JiN4YTsJCQkJPHRpdGxlIGlkPSJ0aXRsZTI2MDEwMiI+ZzE1NDMzLjExNzIxPC90aXRsZT4mI3hhOwkJCQk8ZyBpZD0ic2hhcGUxMTA0Ny00Ij4mI3hhOwkJCQkJPHRpdGxlIGlkPSJ0aXRsZTI2MDEwNCI+cmVjdDE1NDA1PC90aXRsZT4mI3hhOwkJCQkJJiN4YTsJCQkJCQk8cmVjdCBpZD0icmVjdDI2MDEwNiIgeT0iNC4xNCIgc3R5bGU9ImZpbGw6I0ZGRkZGRjtzdHJva2U6IzU1NkE4QTtzdHJva2Utd2lkdGg6MS41O3N0cm9rZS1taXRlcmxpbWl0OjM7IiB3aWR0aD0iMzkuNzUiIGhlaWdodD0iNjguMjUiLz4mI3hhOwkJCQk8L2c+JiN4YTsJCQkJPGcgaWQ9Imdyb3VwMTEwNDgtNiIgdHJhbnNmb3JtPSJ0cmFuc2xhdGUoMS41LC0wLjc1KSI+JiN4YTsJCQkJCTx0aXRsZSBpZD0idGl0bGUyNjAxMDkiPmcxNTQyNTwvdGl0bGU+JiN4YTsJCQkJCTxnIGlkPSJzaGFwZTExMDQ5LTciIHRyYW5zZm9ybT0idHJhbnNsYXRlKDE4KSI+JiN4YTsJCQkJCQk8dGl0bGUgaWQ9InRpdGxlMjYwMTExIj5yZWN0MTU0MDc8L3RpdGxlPiYjeGE7CQkJCQkJPHJlY3QgaWQ9InJlY3QyNjAxMTMiIHk9IjUuNjQiIHN0eWxlPSJmaWxsOiNFNUU1RTU7IiB3aWR0aD0iMTkuNSIgaGVpZ2h0PSI2Ni43NSIvPiYjeGE7CQkJCQk8L2c+JiN4YTsJCQkJCTxnIGlkPSJzaGFwZTExMDUwLTkiIHRyYW5zZm9ybT0idHJhbnNsYXRlKDAsLTQ4KSI+JiN4YTsJCQkJCQk8dGl0bGUgaWQ9InRpdGxlMjYwMTE2Ij5yZWN0MTU0MDk8L3RpdGxlPiYjeGE7CQkJCQkJPHJlY3QgaWQ9InJlY3QyNjAxMTgiIHk9IjcwLjE0IiBzdHlsZT0iZmlsbDojMkJDN0Y0OyIgd2lkdGg9IjE4IiBoZWlnaHQ9IjIuMjUiLz4mI3hhOwkJCQkJPC9nPiYjeGE7CQkJCQk8ZyBpZD0ic2hhcGUxMTA1MS0xMSIgdHJhbnNmb3JtPSJ0cmFuc2xhdGUoMCwtNTguNSkiPiYjeGE7CQkJCQkJPHRpdGxlIGlkPSJ0aXRsZTI2MDEyMSI+cG9seWdvbjE1NDExPC90aXRsZT4mI3hhOwkJCQkJCTxyZWN0IGlkPSJyZWN0MjYwMTIzIiB5PSI3MC4xNCIgc3R5bGU9ImZpbGw6bm9uZTsiIHdpZHRoPSIyNyIgaGVpZ2h0PSIyLjI1Ii8+JiN4YTsJCQkJCTwvZz4mI3hhOwkJCQkJPGcgaWQ9InNoYXBlMTEwNTItMTMiIHRyYW5zZm9ybT0idHJhbnNsYXRlKDAsLTU4LjUpIj4mI3hhOwkJCQkJCTx0aXRsZSBpZD0idGl0bGUyNjAxMjYiPnBvbHlsaW5lMTU0MTM8L3RpdGxlPiYjeGE7CQkJCQkJPHJlY3QgaWQ9InJlY3QyNjAxMjgiIHk9IjcwLjE0IiBzdHlsZT0iZmlsbDpub25lOyIgd2lkdGg9IjI3IiBoZWlnaHQ9IjIuMjUiLz4mI3hhOwkJCQkJPC9nPiYjeGE7CQkJCQk8ZyBpZD0ic2hhcGUxMTA1My0xNSIgdHJhbnNmb3JtPSJ0cmFuc2xhdGUoMCwtNTMuMjUpIj4mI3hhOwkJCQkJCTx0aXRsZSBpZD0idGl0bGUyNjAxMzEiPnJlY3QxNTQxNTwvdGl0bGU+JiN4YTsJCQkJCQk8cmVjdCBpZD0icmVjdDI2MDEzMyIgeT0iNzAuMTQiIHN0eWxlPSJmaWxsOiMyQkM3RjQ7IiB3aWR0aD0iMTgiIGhlaWdodD0iMi4yNSIvPiYjeGE7CQkJCQk8L2c+JiN4YTsJCQkJCTxnIGlkPSJzaGFwZTExMDU0LTE3IiB0cmFuc2Zvcm09InRyYW5zbGF0ZSgwLC01OC41KSI+JiN4YTsJCQkJCQk8dGl0bGUgaWQ9InRpdGxlMjYwMTM2Ij5yZWN0MTU0MTc8L3RpdGxlPiYjeGE7CQkJCQkJPHJlY3QgaWQ9InJlY3QyNjAxMzgiIHk9IjcwLjE0IiBzdHlsZT0iZmlsbDojMkJDN0Y0OyIgd2lkdGg9IjE4IiBoZWlnaHQ9IjIuMjUiLz4mI3hhOwkJCQkJPC9nPiYjeGE7CQkJCQk8ZyBpZD0ic2hhcGUxMTA1NS0xOSIgdHJhbnNmb3JtPSJ0cmFuc2xhdGUoMTgsLTQ4KSI+JiN4YTsJCQkJCQk8dGl0bGUgaWQ9InRpdGxlMjYwMTQxIj5yZWN0MTU0MTk8L3RpdGxlPiYjeGE7CQkJCQkJPHJlY3QgaWQ9InJlY3QyNjAxNDMiIHk9IjcwLjE0IiBzdHlsZT0iZmlsbDojNTU2QThBOyIgd2lkdGg9IjE5LjUiIGhlaWdodD0iMi4yNSIvPiYjeGE7CQkJCQk8L2c+JiN4YTsJCQkJCTxnIGlkPSJzaGFwZTExMDU2LTIxIiB0cmFuc2Zvcm09InRyYW5zbGF0ZSgxOCwtNTMuMjUpIj4mI3hhOwkJCQkJCTx0aXRsZSBpZD0idGl0bGUyNjAxNDYiPnJlY3QxNTQyMTwvdGl0bGU+JiN4YTsJCQkJCQk8cmVjdCBpZD0icmVjdDI2MDE0OCIgeT0iNzAuMTQiIHN0eWxlPSJmaWxsOiM1NTZBOEE7IiB3aWR0aD0iMTkuNSIgaGVpZ2h0PSIyLjI1Ii8+JiN4YTsJCQkJCTwvZz4mI3hhOwkJCQkJPGcgaWQ9InNoYXBlMTEwNTctMjMiIHRyYW5zZm9ybT0idHJhbnNsYXRlKDE4LC01OC41KSI+JiN4YTsJCQkJCQk8dGl0bGUgaWQ9InRpdGxlMjYwMTUxIj5yZWN0MTU0MjM8L3RpdGxlPiYjeGE7CQkJCQkJPHJlY3QgaWQ9InJlY3QyNjAxNTMiIHk9IjcwLjE0IiBzdHlsZT0iZmlsbDojNTU2QThBOyIgd2lkdGg9IjE5LjUiIGhlaWdodD0iMi4yNSIvPiYjeGE7CQkJCQk8L2c+JiN4YTsJCQkJPC9nPiYjeGE7CQkJCTxnIGlkPSJzaGFwZTExMDU4LTI1IiB0cmFuc2Zvcm09InRyYW5zbGF0ZSgwLjc1LC01OS4yNSkiPiYjeGE7CQkJCQk8dGl0bGUgaWQ9InRpdGxlMjYwMTU3Ij5yZWN0MTU0Mjc8L3RpdGxlPiYjeGE7CQkJCQk8cmVjdCBpZD0icmVjdDI2MDE1OSIgeT0iNzAuMTQiIHN0eWxlPSJmaWxsOiM1NTZBOEE7IiB3aWR0aD0iMi4yNSIgaGVpZ2h0PSIyLjI1Ii8+JiN4YTsJCQkJPC9nPiYjeGE7CQkJCTxnIGlkPSJzaGFwZTExMDU5LTI3IiB0cmFuc2Zvcm09InRyYW5zbGF0ZSgwLjc1LC01NCkiPiYjeGE7CQkJCQk8dGl0bGUgaWQ9InRpdGxlMjYwMTYyIj5yZWN0MTU0Mjk8L3RpdGxlPiYjeGE7CQkJCQk8cmVjdCBpZD0icmVjdDI2MDE2NCIgeT0iNzAuMTQiIHN0eWxlPSJmaWxsOiM1NTZBOEE7IiB3aWR0aD0iMi4yNSIgaGVpZ2h0PSIyLjI1Ii8+JiN4YTsJCQkJPC9nPiYjeGE7CQkJCTxnIGlkPSJzaGFwZTExMDYwLTI5IiB0cmFuc2Zvcm09InRyYW5zbGF0ZSgwLjc1LC00OC43NSkiPiYjeGE7CQkJCQk8dGl0bGUgaWQ9InRpdGxlMjYwMTY3Ij5yZWN0MTU0MzE8L3RpdGxlPiYjeGE7CQkJCQk8cmVjdCBpZD0icmVjdDI2MDE2OSIgeT0iNzAuMTQiIHN0eWxlPSJmaWxsOiM1NTZBOEE7IiB3aWR0aD0iMi4yNSIgaGVpZ2h0PSIyLjI1Ii8+JiN4YTsJCQkJPC9nPiYjeGE7CQkJPC9nPiYjeGE7CQkJPGcgaWQ9InNoYXBlMTEwNjEtMzEiIHRyYW5zZm9ybT0idHJhbnNsYXRlKDEzLjY5ODMpIj4mI3hhOwkJCQk8dGl0bGUgaWQ9InRpdGxlMjYwMTczIj5wb2x5Z29uMTU0MzUuMTE3Mzc8L3RpdGxlPiYjeGE7CQkJCSYjeGE7CQkJCQk8cGF0aCBpZD0icGF0aDI2MDE3NSIgaW5rc2NhcGU6Y29ubmVjdG9yLWN1cnZhdHVyZT0iMCIgc3R5bGU9ImZpbGw6I0ZGRkZGRjtzdHJva2U6I0VBNzAwRDtzdHJva2Utd2lkdGg6MS41O3N0cm9rZS1taXRlcmxpbWl0OjM7IiBkPSIgICAgICBNOC4yNyw3Mi4zOUwwLDU4LjE2bDguMjctMTQuMjRoMTYuNTVsOC4yNywxNC4yNGwtOC4yNywxNC4yM0g4LjI3eiIvPiYjeGE7CQkJPC9nPiYjeGE7CQk8L2c+JiN4YTsJCTxnIGlkPSJncm91cDExMDYyLTMzIiB0cmFuc2Zvcm09InRyYW5zbGF0ZSgyMS4yOTEyLC0yLjMzOTU1KSI+JiN4YTsJCQk8dGl0bGUgaWQ9InRpdGxlMjYwMTc5Ij5NeVNRTDwvdGl0bGU+JiN4YTsJCQk8ZyBpZD0ic2hhcGUxMTA2My0zNCI+JiN4YTsJCQkJPHRpdGxlIGlkPSJ0aXRsZTI2MDE4MSI+U2hlZXQuMTEwNjM8L3RpdGxlPiYjeGE7CQkJCTxnIGlkPSJzaGFkb3cxMTA2My0zNSIgdHJhbnNmb3JtPSJ0cmFuc2xhdGUoMC4zNDU2LDEuOTcyOCkiPiYjeGE7CQkJCQk8ZyBpZD0icGF0aDI2MDE4MyIgaW5rc2NhcGU6Y29ubmVjdG9yLWN1cnZhdHVyZT0iMCIgc3R5bGU9ImZpbHRlcjp1cmwoI2ZpbHRlcl8yKTsiPiYjeGE7CQkJCQkJPHBhdGggc3R5bGU9Im9wYWNpdHk6MC4yMjtmaWxsOiM1QjlCRDU7IiBkPSJNMCw1MS40OXYxNy41OWMwLDEuODMsNC4xMiwzLjMxLDkuMiwzLjMxdi0yMC45TDAsNTEuNDl6Ii8+JiN4YTsJCQkJCTwvZz4mI3hhOwkJCQk8L2c+JiN4YTsJCQkJPHBhdGggaWQ9InBhdGgyNjAxODYiIGlua3NjYXBlOmNvbm5lY3Rvci1jdXJ2YXR1cmU9IjAiIHN0eWxlPSJmaWxsOiMwMDcyQzY7IiBkPSJNMCw1MS40OXYxNy41OWMwLDEuODMsNC4xMiwzLjMxLDkuMiwzLjMxICAgICAgdi0yMC45TDAsNTEuNDl6Ii8+JiN4YTsJCQk8L2c+JiN4YTsJCQk8ZyBpZD0ic2hhcGUxMTA2NC0zOSIgdHJhbnNmb3JtPSJ0cmFuc2xhdGUoOS4wNzEwOCwtNC44NDA0OWUtNCkiPiYjeGE7CQkJCTx0aXRsZSBpZD0idGl0bGUyNjAxODkiPlNoZWV0LjExMDY0PC90aXRsZT4mI3hhOwkJCQk8ZyBpZD0ic2hhZG93MTEwNjQtNDAiIHRyYW5zZm9ybT0idHJhbnNsYXRlKDAuMzQ1NiwxLjk3MjgpIj4mI3hhOwkJCQkJPGcgaWQ9InBhdGgyNjAxOTEiIGlua3NjYXBlOmNvbm5lY3Rvci1jdXJ2YXR1cmU9IjAiIHN0eWxlPSJmaWx0ZXI6dXJsKCNmaWx0ZXJfMik7Ij4mI3hhOwkJCQkJCTxwYXRoIHN0eWxlPSJvcGFjaXR5OjAuMjI7ZmlsbDojNUI5QkQ1OyIgZD0iTTAsNzIuMzloMC4xM2M1LjA3LDAsOS4xOS0xLjQ4LDkuMTktMy4zMVY1MS41SDBWNzIuMzl6Ii8+JiN4YTsJCQkJCTwvZz4mI3hhOwkJCQk8L2c+JiN4YTsJCQkJPHBhdGggaWQ9InBhdGgyNjAxOTQiIGlua3NjYXBlOmNvbm5lY3Rvci1jdXJ2YXR1cmU9IjAiIHN0eWxlPSJmaWxsOiMwMDcyQzY7IiBkPSJNMCw3Mi4zOWgwLjEzYzUuMDcsMCw5LjE5LTEuNDgsOS4xOS0zLjMxICAgICAgVjUxLjVIMFY3Mi4zOXoiLz4mI3hhOwkJCTwvZz4mI3hhOwkJCTxnIGlkPSJzaGFwZTExMDY1LTQ0IiB0cmFuc2Zvcm09InRyYW5zbGF0ZSg5LjA3MTA4LC00Ljg0MDQ5ZS00KSI+JiN4YTsJCQkJPHRpdGxlIGlkPSJ0aXRsZTI2MDE5NyI+U2hlZXQuMTEwNjU8L3RpdGxlPiYjeGE7CQkJCTxnIGlkPSJzaGFkb3cxMTA2NS00NSIgdHJhbnNmb3JtPSJ0cmFuc2xhdGUoMC4zNDU2LDEuOTcyOCkiPiYjeGE7CQkJCQk8ZyBpZD0icGF0aDI2MDE5OSIgaW5rc2NhcGU6Y29ubmVjdG9yLWN1cnZhdHVyZT0iMCIgc3R5bGU9ImZpbHRlcjp1cmwoI2ZpbHRlcl8yKTsiPiYjeGE7CQkJCQkJPHBhdGggc3R5bGU9Im9wYWNpdHk6MC4yMjtmaWxsOiM1QjlCRDU7IiBkPSJNMCw3Mi4zOWgwLjEzYzUuMDcsMCw5LjE5LTEuNDgsOS4xOS0zLjMxVjUxLjVIMFY3Mi4zOXoiLz4mI3hhOwkJCQkJPC9nPiYjeGE7CQkJCTwvZz4mI3hhOwkJCQk8cGF0aCBpZD0icGF0aDI2MDIwMiIgaW5rc2NhcGU6Y29ubmVjdG9yLWN1cnZhdHVyZT0iMCIgc3R5bGU9ImZpbGw6I0ZGRkZGRjtmaWxsLW9wYWNpdHk6MC4xNTsiIGQ9Ik0wLDcyLjM5aDAuMTMgICAgICBjNS4wNywwLDkuMTktMS40OCw5LjE5LTMuMzFWNTEuNUgwVjcyLjM5eiIvPiYjeGE7CQkJPC9nPiYjeGE7CQkJPGcgaWQ9InNoYXBlMTEwNjYtNDkiIHRyYW5zZm9ybT0idHJhbnNsYXRlKDAsLTE3LjU4OTQpIj4mI3hhOwkJCQk8dGl0bGUgaWQ9InRpdGxlMjYwMjA1Ij5TaGVldC4xMTA2NjwvdGl0bGU+JiN4YTsJCQkJPGcgaWQ9InNoYWRvdzExMDY2LTUwIiB0cmFuc2Zvcm09InRyYW5zbGF0ZSgwLjM0NTYsMS45NzI4KSI+JiN4YTsJCQkJCTxnIGlkPSJwYXRoMjYwMjA3IiBpbmtzY2FwZTpjb25uZWN0b3ItY3VydmF0dXJlPSIwIiBzdHlsZT0iZmlsdGVyOnVybCgjZmlsdGVyXzIpOyI+JiN4YTsJCQkJCQk8cGF0aCBzdHlsZT0ib3BhY2l0eTowLjIyO2ZpbGw6IzVCOUJENTsiIGQ9Ik0xOC4zOSw2OS4wOGMwLDEuODMtNC4xMSwzLjMxLTkuMTksMy4zMVMwLDcwLjkxLDAsNjkuMDggICAgICAgIGMwLTEuODIsNC4xMi0zLjMsOS4yLTMuM1MxOC4zOSw2Ny4yNiwxOC4zOSw2OS4wOHoiLz4mI3hhOwkJCQkJPC9nPiYjeGE7CQkJCTwvZz4mI3hhOwkJCQk8cGF0aCBpZD0icGF0aDI2MDIxMCIgaW5rc2NhcGU6Y29ubmVjdG9yLWN1cnZhdHVyZT0iMCIgc3R5bGU9ImZpbGw6I0ZGRkZGRjsiIGQ9Ik0xOC4zOSw2OS4wOGMwLDEuODMtNC4xMSwzLjMxLTkuMTksMy4zMSAgICAgIFMwLDcwLjkxLDAsNjkuMDhjMC0xLjgyLDQuMTItMy4zLDkuMi0zLjNTMTguMzksNjcuMjYsMTguMzksNjkuMDh6Ii8+JiN4YTsJCQk8L2c+JiN4YTsJCQk8ZyBpZD0ic2hhcGUxMTA2Ny01NCIgdHJhbnNmb3JtPSJ0cmFuc2xhdGUoMS44ODAwNSwtMTguOTA0NSkiPiYjeGE7CQkJCTx0aXRsZSBpZD0idGl0bGUyNjAyMTMiPlNoZWV0LjExMDY3PC90aXRsZT4mI3hhOwkJCQk8ZyBpZD0ic2hhZG93MTEwNjctNTUiIHRyYW5zZm9ybT0idHJhbnNsYXRlKDAuMzQ1NiwxLjk3MjgpIj4mI3hhOwkJCQkJPGcgaWQ9InBhdGgyNjAyMTUiIGlua3NjYXBlOmNvbm5lY3Rvci1jdXJ2YXR1cmU9IjAiIHN0eWxlPSJmaWx0ZXI6dXJsKCNmaWx0ZXJfMik7Ij4mI3hhOwkJCQkJCTxwYXRoIHN0eWxlPSJvcGFjaXR5OjAuMjI7ZmlsbDojNUI5QkQ1OyIgZD0iTTE0LjYzLDcwLjIxYzAsMS4yLTMuMjcsMi4xOC03LjMxLDIuMThTMCw3MS40MSwwLDcwLjIxICAgICAgICBjMC0xLjIxLDMuMjgtMi4xOCw3LjMyLTIuMThTMTQuNjMsNjksMTQuNjMsNzAuMjF6Ii8+JiN4YTsJCQkJCTwvZz4mI3hhOwkJCQk8L2c+JiN4YTsJCQkJPHBhdGggaWQ9InBhdGgyNjAyMTgiIGlua3NjYXBlOmNvbm5lY3Rvci1jdXJ2YXR1cmU9IjAiIHN0eWxlPSJmaWxsOiNERDU5MDA7IiBkPSJNMTQuNjMsNzAuMjFjMCwxLjItMy4yNywyLjE4LTcuMzEsMi4xOCAgICAgIFMwLDcxLjQxLDAsNzAuMjFjMC0xLjIxLDMuMjgtMi4xOCw3LjMyLTIuMThTMTQuNjMsNjksMTQuNjMsNzAuMjF6Ii8+JiN4YTsJCQk8L2c+JiN4YTsJCQk8ZyBpZD0ic2hhcGUxMTA2OC01OSIgdHJhbnNmb3JtPSJ0cmFuc2xhdGUoMS44ODEwMiwtMTkuNzUzNikiPiYjeGE7CQkJCTx0aXRsZSBpZD0idGl0bGUyNjAyMjEiPlNoZWV0LjExMDY4PC90aXRsZT4mI3hhOwkJCQk8ZyBpZD0ic2hhZG93MTEwNjgtNjAiIHRyYW5zZm9ybT0idHJhbnNsYXRlKDAuMzQ1NiwxLjk3MjgpIj4mI3hhOwkJCQkJPGcgaWQ9InBhdGgyNjAyMjMiIGlua3NjYXBlOmNvbm5lY3Rvci1jdXJ2YXR1cmU9IjAiIHN0eWxlPSJmaWx0ZXI6dXJsKCNmaWx0ZXJfMik7Ij4mI3hhOwkJCQkJCTxwYXRoIHN0eWxlPSJvcGFjaXR5OjAuMjI7ZmlsbDojNUI5QkQ1OyIgZD0iTTEzLjEsNzIuMzljMC45Ni0wLjM3LDEuNTMtMC44MywxLjUzLTEuMzNjMC0xLjIxLTMuMjctMi4xOC03LjMxLTIuMTggICAgICAgIFMwLDY5Ljg1LDAsNzEuMDZjMCwwLjUsMC41OCwwLjk2LDEuNTMsMS4zM2MxLjM0LTAuNTEsMy40My0wLjg1LDUuNzktMC44NUM5LjY3LDcxLjU0LDExLjc2LDcxLjg4LDEzLjEsNzIuMzl6Ii8+JiN4YTsJCQkJCTwvZz4mI3hhOwkJCQk8L2c+JiN4YTsJCQkJPHBhdGggaWQ9InBhdGgyNjAyMjYiIGlua3NjYXBlOmNvbm5lY3Rvci1jdXJ2YXR1cmU9IjAiIHN0eWxlPSJmaWxsOiNGRjhDMDA7IiBkPSJNMTMuMSw3Mi4zOWMwLjk2LTAuMzcsMS41My0wLjgzLDEuNTMtMS4zMyAgICAgIGMwLTEuMjEtMy4yNy0yLjE4LTcuMzEtMi4xOFMwLDY5Ljg1LDAsNzEuMDZjMCwwLjUsMC41OCwwLjk2LDEuNTMsMS4zM2MxLjM0LTAuNTEsMy40My0wLjg1LDUuNzktMC44NSAgICAgIEM5LjY3LDcxLjU0LDExLjc2LDcxLjg4LDEzLjEsNzIuMzl6Ii8+JiN4YTsJCQk8L2c+JiN4YTsJCQk8ZyBpZD0ic2hhcGUxMTA2OS02NCIgdHJhbnNmb3JtPSJ0cmFuc2xhdGUoMS45MTAwNiwtNy44Nzk4NCkiPiYjeGE7CQkJCTx0aXRsZSBpZD0idGl0bGUyNjAyMjkiPlNoZWV0LjExMDY5PC90aXRsZT4mI3hhOwkJCQk8ZyBpZD0ic2hhZG93MTEwNjktNjUiIHRyYW5zZm9ybT0idHJhbnNsYXRlKDAuMzQ1NiwxLjk3MjgpIj4mI3hhOwkJCQkJPGcgaWQ9InBhdGgyNjAyMzEiIGlua3NjYXBlOmNvbm5lY3Rvci1jdXJ2YXR1cmU9IjAiIHN0eWxlPSJmaWx0ZXI6dXJsKCNmaWx0ZXJfMik7Ij4mI3hhOwkJCQkJCTxwYXRoIHN0eWxlPSJvcGFjaXR5OjAuMjI7ZmlsbDojNUI5QkQ1OyIgZD0iTTAsNzIuMzJoMS4xNnYtNC41OWwxLjgsNGMwLjIyLDAuNDksMC41MSwwLjY2LDEuMDgsMC42NnMwLjg1LTAuMTcsMS4wNi0wLjY2ICAgICAgICBsMS44LTR2NC41OWgxLjE2di00LjU4YzAtMC40NS0wLjE3LTAuNjctMC41NC0wLjc4Yy0wLjg5LTAuMjctMS40OC0wLjA0LTEuNzUsMC41Nkw0LDcxLjQ3bC0xLjcxLTMuOTUgICAgICAgIGMtMC4yNS0wLjYtMC44Ni0wLjgzLTEuNzQtMC41NkMwLjE4LDY3LjA3LDAsNjcuMjksMCw2Ny43NFY3Mi4zMnoiLz4mI3hhOwkJCQkJPC9nPiYjeGE7CQkJCTwvZz4mI3hhOwkJCQk8cGF0aCBpZD0icGF0aDI2MDIzNCIgaW5rc2NhcGU6Y29ubmVjdG9yLWN1cnZhdHVyZT0iMCIgc3R5bGU9ImZpbGw6I0ZGRkZGRjsiIGQ9Ik0wLDcyLjMyaDEuMTZ2LTQuNTlsMS44LDQgICAgICBjMC4yMiwwLjQ5LDAuNTEsMC42NiwxLjA4LDAuNjZzMC44NS0wLjE3LDEuMDYtMC42NmwxLjgtNHY0LjU5aDEuMTZ2LTQuNThjMC0wLjQ1LTAuMTctMC42Ny0wLjU0LTAuNzggICAgICBjLTAuODktMC4yNy0xLjQ4LTAuMDQtMS43NSwwLjU2TDQsNzEuNDdsLTEuNzEtMy45NWMtMC4yNS0wLjYtMC44Ni0wLjgzLTEuNzQtMC41NkMwLjE4LDY3LjA3LDAsNjcuMjksMCw2Ny43NFY3Mi4zMnoiLz4mI3hhOwkJCTwvZz4mI3hhOwkJCTxnIGlkPSJzaGFwZTExMDcwLTY5IiB0cmFuc2Zvcm09InRyYW5zbGF0ZSgxMC45NDE5LC02LjMyMTIpIj4mI3hhOwkJCQk8dGl0bGUgaWQ9InRpdGxlMjYwMjM3Ij5TaGVldC4xMTA3MDwvdGl0bGU+JiN4YTsJCQkJPGcgaWQ9InNoYWRvdzExMDcwLTcwIiB0cmFuc2Zvcm09InRyYW5zbGF0ZSgwLjM0NTYsMS45NzI4KSI+JiN4YTsJCQkJCTxnIGlkPSJwYXRoMjYwMjM5IiBpbmtzY2FwZTpjb25uZWN0b3ItY3VydmF0dXJlPSIwIiBzdHlsZT0iZmlsdGVyOnVybCgjZmlsdGVyXzIpOyI+JiN4YTsJCQkJCQk8cGF0aCBzdHlsZT0ib3BhY2l0eTowLjIyO2ZpbGw6IzVCOUJENTsiIGQ9Ik0wLDY3LjAzaDEuMTZ2Mi41M2MtMC4wMSwwLjEzLDAuMDUsMC40NiwwLjY4LDAuNDdjMC4zMywwLDIuNTEsMCwyLjUzLDB2LTMuMDIgICAgICAgIGgxLjE3YzAsMCwwLDQuMTEsMCw0LjEzYzAsMS4wMS0xLjI2LDEuMjMtMS44NCwxLjI1SDAuMDN2LTAuNzhIMy43YzAuNzUtMC4wOCwwLjY2LTAuNDUsMC42Ni0wLjU4di0wLjNIMS44OSAgICAgICAgQzAuNzQsNzAuNzIsMC4wMSw3MC4yMSwwLDY5LjY0QzAsNjkuNTgsMC4wMyw2Ny4wNSwwLDY3LjAzeiIvPiYjeGE7CQkJCQk8L2c+JiN4YTsJCQkJPC9nPiYjeGE7CQkJCTxwYXRoIGlkPSJwYXRoMjYwMjQyIiBpbmtzY2FwZTpjb25uZWN0b3ItY3VydmF0dXJlPSIwIiBzdHlsZT0iZmlsbDojRkZGRkZGOyIgZD0iTTAsNjcuMDNoMS4xNnYyLjUzICAgICAgYy0wLjAxLDAuMTMsMC4wNSwwLjQ2LDAuNjgsMC40N2MwLjMzLDAsMi41MSwwLDIuNTMsMHYtMy4wMmgxLjE3YzAsMCwwLDQuMTEsMCw0LjEzYzAsMS4wMS0xLjI2LDEuMjMtMS44NCwxLjI1SDAuMDN2LTAuNzhIMy43ICAgICAgYzAuNzUtMC4wOCwwLjY2LTAuNDUsMC42Ni0wLjU4di0wLjNIMS44OUMwLjc0LDcwLjcyLDAuMDEsNzAuMjEsMCw2OS42NEMwLDY5LjU4LDAuMDMsNjcuMDUsMCw2Ny4wM3oiLz4mI3hhOwkJCTwvZz4mI3hhOwkJPC9nPiYjeGE7CTwvZz4mI3hhOzwvZz4mI3hhOzwvc3ZnPg==;strokeWidth=3;" parent="8pe4ZQPsovDr-rk-gTb1-14" vertex="1">
          <mxGeometry x="70" y="451" width="114.93" height="170" as="geometry" />
        </mxCell>
        <mxCell id="8pe4ZQPsovDr-rk-gTb1-12" value="" style="curved=1;endArrow=classic;html=1;rounded=0;dashed=1;strokeWidth=3;entryX=1;entryY=0.75;entryDx=0;entryDy=0;" parent="8pe4ZQPsovDr-rk-gTb1-14" target="8pe4ZQPsovDr-rk-gTb1-3" edge="1">
          <mxGeometry width="50" height="50" relative="1" as="geometry">
            <mxPoint x="170" y="120" as="sourcePoint" />
            <mxPoint x="170" y="170" as="targetPoint" />
            <Array as="points">
              <mxPoint x="170" y="120" />
              <mxPoint x="220" y="170" />
              <mxPoint x="250" y="320" />
            </Array>
          </mxGeometry>
        </mxCell>
        <mxCell id="8pe4ZQPsovDr-rk-gTb1-13" value="" style="curved=1;endArrow=classic;html=1;rounded=0;dashed=1;strokeWidth=3;entryX=0.957;entryY=0.641;entryDx=0;entryDy=0;entryPerimeter=0;" parent="8pe4ZQPsovDr-rk-gTb1-14" target="8pe4ZQPsovDr-rk-gTb1-4" edge="1">
          <mxGeometry width="50" height="50" relative="1" as="geometry">
            <mxPoint x="170" y="120" as="sourcePoint" />
            <mxPoint x="170" y="160" as="targetPoint" />
            <Array as="points">
              <mxPoint x="170" y="110" />
              <mxPoint x="240" y="160" />
              <mxPoint x="340" y="340" />
            </Array>
          </mxGeometry>
        </mxCell>
        <mxCell id="8pe4ZQPsovDr-rk-gTb1-15" value="&lt;font style=&quot;font-size: 28px&quot;&gt;Database Cluster&lt;/font&gt;" style="text;strokeColor=none;fillColor=none;html=1;fontSize=24;fontStyle=1;verticalAlign=middle;align=center;" parent="8pe4ZQPsovDr-rk-gTb1-14" vertex="1">
          <mxGeometry x="140" y="10" width="100" height="40" as="geometry" />
        </mxCell>
        <mxCell id="8pe4ZQPsovDr-rk-gTb1-18" value="R / W" style="text;strokeColor=none;fillColor=none;html=1;fontSize=24;fontStyle=1;verticalAlign=middle;align=center;" parent="8pe4ZQPsovDr-rk-gTb1-14" vertex="1">
          <mxGeometry x="77" y="126" width="83" height="40" as="geometry" />
        </mxCell>
        <mxCell id="8pe4ZQPsovDr-rk-gTb1-37" value="Read" style="text;strokeColor=none;fillColor=none;html=1;fontSize=24;fontStyle=1;verticalAlign=middle;align=center;" parent="8pe4ZQPsovDr-rk-gTb1-14" vertex="1">
          <mxGeometry x="78" y="312" width="83" height="40" as="geometry" />
        </mxCell>
        <mxCell id="8pe4ZQPsovDr-rk-gTb1-38" value="Read" style="text;strokeColor=none;fillColor=none;html=1;fontSize=24;fontStyle=1;verticalAlign=middle;align=center;" parent="8pe4ZQPsovDr-rk-gTb1-14" vertex="1">
          <mxGeometry x="77" y="503" width="83" height="40" as="geometry" />
        </mxCell>
        <mxCell id="8pe4ZQPsovDr-rk-gTb1-39" value="Replication" style="text;strokeColor=none;fillColor=none;html=1;fontSize=24;fontStyle=1;verticalAlign=middle;align=center;rotation=90;" parent="8pe4ZQPsovDr-rk-gTb1-14" vertex="1">
          <mxGeometry x="287" y="290" width="100" height="40" as="geometry" />
        </mxCell>
        <mxCell id="8pe4ZQPsovDr-rk-gTb1-50" value="" style="group" parent="8pe4ZQPsovDr-rk-gTb1-14" vertex="1" connectable="0">
          <mxGeometry x="237" y="567" width="120" height="74" as="geometry" />
        </mxCell>
        <mxCell id="8pe4ZQPsovDr-rk-gTb1-48" value="&lt;font color=&quot;#3333ff&quot;&gt;---- Read&lt;/font&gt;" style="text;html=1;align=center;verticalAlign=middle;resizable=0;points=[];autosize=1;strokeColor=none;fillColor=none;fontSize=26;" parent="8pe4ZQPsovDr-rk-gTb1-50" vertex="1">
          <mxGeometry y="34" width="120" height="40" as="geometry" />
        </mxCell>
        <mxCell id="8pe4ZQPsovDr-rk-gTb1-49" value="&lt;font color=&quot;#ff0000&quot;&gt;---- Write&lt;/font&gt;" style="text;html=1;align=center;verticalAlign=middle;resizable=0;points=[];autosize=1;strokeColor=none;fillColor=none;fontSize=26;" parent="8pe4ZQPsovDr-rk-gTb1-50" vertex="1">
          <mxGeometry width="120" height="40" as="geometry" />
        </mxCell>
        <mxCell id="8pe4ZQPsovDr-rk-gTb1-43" value="" style="group" parent="1" vertex="1" connectable="0">
          <mxGeometry x="110" y="397" width="170" height="170" as="geometry" />
        </mxCell>
        <mxCell id="8pe4ZQPsovDr-rk-gTb1-42" value="" style="shape=image;verticalLabelPosition=bottom;labelBackgroundColor=#ffffff;verticalAlign=top;aspect=fixed;imageAspect=0;image=data:image/svg+xml,PHN2ZyB4bWxuczpjYz0iaHR0cDovL2NyZWF0aXZlY29tbW9ucy5vcmcvbnMjIiB4bWxuczpkYz0iaHR0cDovL3B1cmwub3JnL2RjL2VsZW1lbnRzLzEuMS8iIHhtbG5zOmlua3NjYXBlPSJodHRwOi8vd3d3Lmlua3NjYXBlLm9yZy9uYW1lc3BhY2VzL2lua3NjYXBlIiB4bWxuczpyZGY9Imh0dHA6Ly93d3cudzMub3JnLzE5OTkvMDIvMjItcmRmLXN5bnRheC1ucyMiIHhtbG5zOnNvZGlwb2RpPSJodHRwOi8vc29kaXBvZGkuc291cmNlZm9yZ2UubmV0L0RURC9zb2RpcG9kaS0wLmR0ZCIgeG1sbnM6c3ZnPSJodHRwOi8vd3d3LnczLm9yZy8yMDAwL3N2ZyIgeG1sbnM9Imh0dHA6Ly93d3cudzMub3JnLzIwMDAvc3ZnIiB4bWxuczp4bGluaz0iaHR0cDovL3d3dy53My5vcmcvMTk5OS94bGluayIgdmVyc2lvbj0iMS4xIiBpZD0ic3ZnOTYyMCIgaW5rc2NhcGU6dmVyc2lvbj0iMC45Mi4zICgyNDA1NTQ2LCAyMDE4LTAzLTExKSIgc29kaXBvZGk6ZG9jbmFtZT0idmlydHVhbGl6YXRpb25faHlwZXJfdl9zZXJ2ZXIuc3ZnIiB4PSIwcHgiIHk9IjBweCIgdmlld0JveD0iMCAwIDY4Ljc3IDY5Ljc1IiBzdHlsZT0iZW5hYmxlLWJhY2tncm91bmQ6bmV3IDAgMCA2OC43NyA2OS43NTsiIHhtbDpzcGFjZT0icHJlc2VydmUiPiYjeGE7PHNvZGlwb2RpOm5hbWVkdmlldyBib3JkZXJjb2xvcj0iIzY2NjY2NiIgYm9yZGVyb3BhY2l0eT0iMSIgZml0LW1hcmdpbi1ib3R0b209IjAiIGZpdC1tYXJnaW4tbGVmdD0iMCIgZml0LW1hcmdpbi1yaWdodD0iMCIgZml0LW1hcmdpbi10b3A9IjAiIGdyaWR0b2xlcmFuY2U9IjEwIiBndWlkZXRvbGVyYW5jZT0iMTAiIGlkPSJuYW1lZHZpZXc5NjIyIiBpbmtzY2FwZTpjdXJyZW50LWxheWVyPSJzdmc5NjIwIiBpbmtzY2FwZTpjeD0iNDUuODQ4MTQ0IiBpbmtzY2FwZTpjeT0iNDYuNTAwMDExIiBpbmtzY2FwZTpwYWdlb3BhY2l0eT0iMCIgaW5rc2NhcGU6cGFnZXNoYWRvdz0iMiIgaW5rc2NhcGU6d2luZG93LWhlaWdodD0iMTAxNyIgaW5rc2NhcGU6d2luZG93LW1heGltaXplZD0iMSIgaW5rc2NhcGU6d2luZG93LXdpZHRoPSIxOTIwIiBpbmtzY2FwZTp3aW5kb3cteD0iLTgiIGlua3NjYXBlOndpbmRvdy15PSItOCIgaW5rc2NhcGU6em9vbT0iOS4xMjYzMTg3IiBvYmplY3R0b2xlcmFuY2U9IjEwIiBwYWdlY29sb3I9IiNmZmZmZmYiIHNob3dncmlkPSJmYWxzZSI+JiN4YTsJPC9zb2RpcG9kaTpuYW1lZHZpZXc+JiN4YTs8ZyBpZD0iZzk2MTgiIHRyYW5zZm9ybT0idHJhbnNsYXRlKC0wLjc1LC0wLjc1KSI+JiN4YTsJPHRpdGxlIGlkPSJ0aXRsZTk0MTUiPlBhZ2UtMTwvdGl0bGU+JiN4YTsJPGcgaWQ9Imdyb3VwODcxMy0xIiB0cmFuc2Zvcm09InRyYW5zbGF0ZSgxLjUsLTEuNSkiPiYjeGE7CQk8dGl0bGUgaWQ9InRpdGxlOTQxNyI+VmlydHVhbGl6YXRpb24gSHlwZXItViBTZXJ2ZXI8L3RpdGxlPiYjeGE7CQk8ZyBpZD0iZ3JvdXA4NzE0LTIiPiYjeGE7CQkJPHRpdGxlIGlkPSJ0aXRsZTk0MTkiPmcxNTYzMi4xOTg2NDwvdGl0bGU+JiN4YTsJCQk8ZyBpZD0ic2hhcGU4NzE1LTMiPiYjeGE7CQkJCTx0aXRsZSBpZD0idGl0bGU5NDIxIj5yZWN0MTU2MTA8L3RpdGxlPiYjeGE7CQkJCSYjeGE7CQkJCQk8cmVjdCBpZD0icmVjdDk0MjMiIHg9IjAiIHk9IjMiIHN0eWxlPSJmaWxsOiNGRkZGRkY7c3Ryb2tlOiM1NTZBOEE7c3Ryb2tlLXdpZHRoOjEuNTtzdHJva2UtbWl0ZXJsaW1pdDozOyIgd2lkdGg9IjQwLjYiIGhlaWdodD0iNjguMjUiLz4mI3hhOwkJCTwvZz4mI3hhOwkJCTxnIGlkPSJncm91cDg3MTYtNSIgdHJhbnNmb3JtPSJ0cmFuc2xhdGUoMS43Mjc4NSwtMC44NjM5MjQpIj4mI3hhOwkJCQk8dGl0bGUgaWQ9InRpdGxlOTQyNiI+ZzE1NjIyPC90aXRsZT4mI3hhOwkJCQk8ZyBpZD0ic2hhcGU4NzE3LTYiIHRyYW5zZm9ybT0idHJhbnNsYXRlKDE5Ljg3MDMpIj4mI3hhOwkJCQkJPHRpdGxlIGlkPSJ0aXRsZTk0MjgiPnJlY3QxNTYxMjwvdGl0bGU+JiN4YTsJCQkJCTxyZWN0IGlkPSJyZWN0OTQzMCIgeD0iMCIgeT0iNC43MyIgc3R5bGU9ImZpbGw6I0U1RTVFNTsiIHdpZHRoPSIxOC4xNCIgaGVpZ2h0PSI2Ni41MiIvPiYjeGE7CQkJCTwvZz4mI3hhOwkJCQk8ZyBpZD0ic2hhcGU4NzE4LTgiIHRyYW5zZm9ybT0idHJhbnNsYXRlKDAsLTU3LjAxOSkiPiYjeGE7CQkJCQk8dGl0bGUgaWQ9InRpdGxlOTQzMyI+cG9seWdvbjE1NjE0PC90aXRsZT4mI3hhOwkJCQkJPHJlY3QgaWQ9InJlY3Q5NDM1IiB4PSIwIiB5PSI2OC42NiIgc3R5bGU9ImZpbGw6bm9uZTsiIHdpZHRoPSIzMS4xIiBoZWlnaHQ9IjIuNTkiLz4mI3hhOwkJCQk8L2c+JiN4YTsJCQkJPGcgaWQ9InNoYXBlODcxOS0xMCIgdHJhbnNmb3JtPSJ0cmFuc2xhdGUoMCwtNTcuMDE5KSI+JiN4YTsJCQkJCTx0aXRsZSBpZD0idGl0bGU5NDM4Ij5wb2x5bGluZTE1NjE2PC90aXRsZT4mI3hhOwkJCQkJPHJlY3QgaWQ9InJlY3Q5NDQwIiB4PSIwIiB5PSI2OC42NiIgc3R5bGU9ImZpbGw6bm9uZTsiIHdpZHRoPSIzMS4xIiBoZWlnaHQ9IjIuNTkiLz4mI3hhOwkJCQk8L2c+JiN4YTsJCQkJPGcgaWQ9InNoYXBlODcyMC0xMiIgdHJhbnNmb3JtPSJ0cmFuc2xhdGUoMCwtNTcuMDE5KSI+JiN4YTsJCQkJCTx0aXRsZSBpZD0idGl0bGU5NDQzIj5yZWN0MTU2MTg8L3RpdGxlPiYjeGE7CQkJCQk8cmVjdCBpZD0icmVjdDk0NDUiIHg9IjAiIHk9IjY4LjY2IiBzdHlsZT0iZmlsbDojMkJDN0Y0OyIgd2lkdGg9IjIwLjczIiBoZWlnaHQ9IjIuNTkiLz4mI3hhOwkJCQk8L2c+JiN4YTsJCQkJPGcgaWQ9InNoYXBlODcyMS0xNCIgdHJhbnNmb3JtPSJ0cmFuc2xhdGUoMTkuODcwMywtNTcuMDE5KSI+JiN4YTsJCQkJCTx0aXRsZSBpZD0idGl0bGU5NDQ4Ij5yZWN0MTU2MjA8L3RpdGxlPiYjeGE7CQkJCQk8cmVjdCBpZD0icmVjdDk0NTAiIHg9IjAiIHk9IjY4LjY2IiBzdHlsZT0iZmlsbDojNTU2QThBOyIgd2lkdGg9IjE4LjE0IiBoZWlnaHQ9IjIuNTkiLz4mI3hhOwkJCQk8L2c+JiN4YTsJCQk8L2c+JiN4YTsJCQk8ZyBpZD0ic2hhcGU4NzIyLTE2IiB0cmFuc2Zvcm09InRyYW5zbGF0ZSgwLjg2MzkyNCwtNTcuODgyOSkiPiYjeGE7CQkJCTx0aXRsZSBpZD0idGl0bGU5NDU0Ij5yZWN0MTU2MjQ8L3RpdGxlPiYjeGE7CQkJCTxyZWN0IGlkPSJyZWN0OTQ1NiIgeD0iMCIgeT0iNjguNjYiIHN0eWxlPSJmaWxsOiM1NTZBOEE7IiB3aWR0aD0iMi41OSIgaGVpZ2h0PSIyLjU5Ii8+JiN4YTsJCQk8L2c+JiN4YTsJCQk8ZyBpZD0ic2hhcGU4NzIzLTE4IiB0cmFuc2Zvcm09InRyYW5zbGF0ZSgxLjcyNzg1LC01MC45NzE1KSI+JiN4YTsJCQkJPHRpdGxlIGlkPSJ0aXRsZTk0NTkiPnJlY3QxNTYyNjwvdGl0bGU+JiN4YTsJCQkJPHJlY3QgaWQ9InJlY3Q5NDYxIiB4PSIwIiB5PSI2OC42NiIgc3R5bGU9ImZpbGw6IzJCQzdGNDsiIHdpZHRoPSIyMC43MyIgaGVpZ2h0PSIyLjU5Ii8+JiN4YTsJCQk8L2c+JiN4YTsJCQk8ZyBpZD0ic2hhcGU4NzI0LTIwIiB0cmFuc2Zvcm09InRyYW5zbGF0ZSgyMS41OTgxLC01MC45NzE1KSI+JiN4YTsJCQkJPHRpdGxlIGlkPSJ0aXRsZTk0NjQiPnJlY3QxNTYyODwvdGl0bGU+JiN4YTsJCQkJPHJlY3QgaWQ9InJlY3Q5NDY2IiB4PSIwIiB5PSI2OC42NiIgc3R5bGU9ImZpbGw6IzU1NkE4QTsiIHdpZHRoPSIxOC4xNCIgaGVpZ2h0PSIyLjU5Ii8+JiN4YTsJCQk8L2c+JiN4YTsJCQk8ZyBpZD0ic2hhcGU4NzI1LTIyIiB0cmFuc2Zvcm09InRyYW5zbGF0ZSgwLjg2MzkyNCwtNTAuOTcxNSkiPiYjeGE7CQkJCTx0aXRsZSBpZD0idGl0bGU5NDY5Ij5yZWN0MTU2MzA8L3RpdGxlPiYjeGE7CQkJCTxyZWN0IGlkPSJyZWN0OTQ3MSIgeD0iMCIgeT0iNjguNjYiIHN0eWxlPSJmaWxsOiM1NTZBOEE7IiB3aWR0aD0iMi41OSIgaGVpZ2h0PSIyLjU5Ii8+JiN4YTsJCQk8L2c+JiN4YTsJCTwvZz4mI3hhOwkJPGcgaWQ9Imdyb3VwODcyNi0yNCIgdHJhbnNmb3JtPSJ0cmFuc2xhdGUoMzMuMTg1NiwtMy4xNTIwMikiPiYjeGE7CQkJPHRpdGxlIGlkPSJ0aXRsZTk0NzUiPmczNjM4PC90aXRsZT4mI3hhOwkJCTxnIGlkPSJzaGFwZTg3MjctMjUiPiYjeGE7CQkJCTx0aXRsZSBpZD0idGl0bGU5NDc3Ij5yZWN0MzYxMDwvdGl0bGU+JiN4YTsJCQkJJiN4YTsJCQkJCTxyZWN0IGlkPSJyZWN0OTQ3OSIgeD0iMCIgeT0iMjQuNzUiIHN0eWxlPSJmaWxsOiNGRkZGRkY7c3Ryb2tlOiM1NTZBOEE7c3Ryb2tlLXdpZHRoOjEuNTtzdHJva2UtbWl0ZXJsaW1pdDozOyIgd2lkdGg9IjI3IiBoZWlnaHQ9IjQ2LjUiLz4mI3hhOwkJCTwvZz4mI3hhOwkJCTxnIGlkPSJncm91cDg3MjgtMjciIHRyYW5zZm9ybT0idHJhbnNsYXRlKDAuNDcyNSwtMC43NSkiPiYjeGE7CQkJCTx0aXRsZSBpZD0idGl0bGU5NDgyIj5nMzYzMDwvdGl0bGU+JiN4YTsJCQkJPGcgaWQ9InNoYXBlODcyOS0yOCIgdHJhbnNmb3JtPSJ0cmFuc2xhdGUoMTIuMjc3NSkiPiYjeGE7CQkJCQk8dGl0bGUgaWQ9InRpdGxlOTQ4NCI+cmVjdDM2MTI8L3RpdGxlPiYjeGE7CQkJCQk8cmVjdCBpZD0icmVjdDk0ODYiIHg9IjAiIHk9IjI2LjI1IiBzdHlsZT0iZmlsbDojRTVFNUU1OyIgd2lkdGg9IjEzLjUiIGhlaWdodD0iNDUiLz4mI3hhOwkJCQk8L2c+JiN4YTsJCQkJPGcgaWQ9InNoYXBlODczMC0zMCIgdHJhbnNmb3JtPSJ0cmFuc2xhdGUoMC4yNzc1LC0zMi4yNSkiPiYjeGE7CQkJCQk8dGl0bGUgaWQ9InRpdGxlOTQ4OSI+cmVjdDM2MTQ8L3RpdGxlPiYjeGE7CQkJCQk8cmVjdCBpZD0icmVjdDk0OTEiIHg9IjAiIHk9IjY5Ljc1IiBzdHlsZT0iZmlsbDojMkJDN0Y0OyIgd2lkdGg9IjExLjk3IiBoZWlnaHQ9IjEuNSIvPiYjeGE7CQkJCTwvZz4mI3hhOwkJCQk8ZyBpZD0ic2hhcGU4NzMxLTMyIiB0cmFuc2Zvcm09InRyYW5zbGF0ZSgwLC0zOS42NDUpIj4mI3hhOwkJCQkJPHRpdGxlIGlkPSJ0aXRsZTk0OTQiPnBvbHlnb24zNjE2PC90aXRsZT4mI3hhOwkJCQkJPHJlY3QgaWQ9InJlY3Q5NDk2IiB4PSIwIiB5PSI2OS43NSIgc3R5bGU9ImZpbGw6bm9uZTsiIHdpZHRoPSIxOC40NSIgaGVpZ2h0PSIxLjUiLz4mI3hhOwkJCQk8L2c+JiN4YTsJCQkJPGcgaWQ9InNoYXBlODczMi0zNCIgdHJhbnNmb3JtPSJ0cmFuc2xhdGUoMCwtMzkuNjQ1KSI+JiN4YTsJCQkJCTx0aXRsZSBpZD0idGl0bGU5NDk5Ij5wb2x5bGluZTM2MTg8L3RpdGxlPiYjeGE7CQkJCQk8cmVjdCBpZD0icmVjdDk1MDEiIHg9IjAiIHk9IjY5Ljc1IiBzdHlsZT0iZmlsbDpub25lOyIgd2lkdGg9IjE4LjQ1IiBoZWlnaHQ9IjEuNSIvPiYjeGE7CQkJCTwvZz4mI3hhOwkJCQk8ZyBpZD0ic2hhcGU4NzMzLTM2IiB0cmFuc2Zvcm09InRyYW5zbGF0ZSgwLjI3NzUsLTM2KSI+JiN4YTsJCQkJCTx0aXRsZSBpZD0idGl0bGU5NTA0Ij5yZWN0MzYyMDwvdGl0bGU+JiN4YTsJCQkJCTxyZWN0IGlkPSJyZWN0OTUwNiIgeD0iMCIgeT0iNjkuNzUiIHN0eWxlPSJmaWxsOiMyQkM3RjQ7IiB3aWR0aD0iMTEuOTciIGhlaWdodD0iMS41Ii8+JiN4YTsJCQkJPC9nPiYjeGE7CQkJCTxnIGlkPSJzaGFwZTg3MzQtMzgiIHRyYW5zZm9ybT0idHJhbnNsYXRlKDAuMjc3NSwtMzkuNzUpIj4mI3hhOwkJCQkJPHRpdGxlIGlkPSJ0aXRsZTk1MDkiPnJlY3QzNjIyPC90aXRsZT4mI3hhOwkJCQkJPHJlY3QgaWQ9InJlY3Q5NTExIiB4PSIwIiB5PSI2OS43NSIgc3R5bGU9ImZpbGw6IzJCQzdGNDsiIHdpZHRoPSIxMS45NyIgaGVpZ2h0PSIxLjUiLz4mI3hhOwkJCQk8L2c+JiN4YTsJCQkJPGcgaWQ9InNoYXBlODczNS00MCIgdHJhbnNmb3JtPSJ0cmFuc2xhdGUoMTIuMjc3NSwtMzIuMjUpIj4mI3hhOwkJCQkJPHRpdGxlIGlkPSJ0aXRsZTk1MTQiPnJlY3QzNjI0PC90aXRsZT4mI3hhOwkJCQkJPHJlY3QgaWQ9InJlY3Q5NTE2IiB4PSIwIiB5PSI2OS43NSIgc3R5bGU9ImZpbGw6IzU1NkE4QTsiIHdpZHRoPSIxMy41IiBoZWlnaHQ9IjEuNSIvPiYjeGE7CQkJCTwvZz4mI3hhOwkJCQk8ZyBpZD0ic2hhcGU4NzM2LTQyIiB0cmFuc2Zvcm09InRyYW5zbGF0ZSgxMi4yNzc1LC0zNikiPiYjeGE7CQkJCQk8dGl0bGUgaWQ9InRpdGxlOTUxOSI+cmVjdDM2MjY8L3RpdGxlPiYjeGE7CQkJCQk8cmVjdCBpZD0icmVjdDk1MjEiIHg9IjAiIHk9IjY5Ljc1IiBzdHlsZT0iZmlsbDojNTU2QThBOyIgd2lkdGg9IjEzLjUiIGhlaWdodD0iMS41Ii8+JiN4YTsJCQkJPC9nPiYjeGE7CQkJCTxnIGlkPSJzaGFwZTg3MzctNDQiIHRyYW5zZm9ybT0idHJhbnNsYXRlKDEyLjI3NzUsLTM5Ljc1KSI+JiN4YTsJCQkJCTx0aXRsZSBpZD0idGl0bGU5NTI0Ij5yZWN0MzYyODwvdGl0bGU+JiN4YTsJCQkJCTxyZWN0IGlkPSJyZWN0OTUyNiIgeD0iMCIgeT0iNjkuNzUiIHN0eWxlPSJmaWxsOiM1NTZBOEE7IiB3aWR0aD0iMTMuNSIgaGVpZ2h0PSIxLjUiLz4mI3hhOwkJCQk8L2c+JiN4YTsJCQk8L2c+JiN4YTsJCQk8ZyBpZD0ic2hhcGU4NzM4LTQ2IiB0cmFuc2Zvcm09InRyYW5zbGF0ZSgwLjc1LC00MC41KSI+JiN4YTsJCQkJPHRpdGxlIGlkPSJ0aXRsZTk1MzAiPnJlY3QzNjMyPC90aXRsZT4mI3hhOwkJCQk8cmVjdCBpZD0icmVjdDk1MzIiIHg9IjAiIHk9IjY5Ljc1IiBzdHlsZT0iZmlsbDojNTU2QThBOyIgd2lkdGg9IjEuNSIgaGVpZ2h0PSIxLjUiLz4mI3hhOwkJCTwvZz4mI3hhOwkJCTxnIGlkPSJzaGFwZTg3MzktNDgiIHRyYW5zZm9ybT0idHJhbnNsYXRlKDAuNzUsLTM2Ljc1KSI+JiN4YTsJCQkJPHRpdGxlIGlkPSJ0aXRsZTk1MzUiPnJlY3QzNjM0PC90aXRsZT4mI3hhOwkJCQk8cmVjdCBpZD0icmVjdDk1MzciIHg9IjAiIHk9IjY5Ljc1IiBzdHlsZT0iZmlsbDojNTU2QThBOyIgd2lkdGg9IjEuNSIgaGVpZ2h0PSIxLjUiLz4mI3hhOwkJCTwvZz4mI3hhOwkJCTxnIGlkPSJzaGFwZTg3NDAtNTAiIHRyYW5zZm9ybT0idHJhbnNsYXRlKDAuNzUsLTMzKSI+JiN4YTsJCQkJPHRpdGxlIGlkPSJ0aXRsZTk1NDAiPnJlY3QzNjM2PC90aXRsZT4mI3hhOwkJCQk8cmVjdCBpZD0icmVjdDk1NDIiIHg9IjAiIHk9IjY5Ljc1IiBzdHlsZT0iZmlsbDojNTU2QThBOyIgd2lkdGg9IjEuNSIgaGVpZ2h0PSIxLjUiLz4mI3hhOwkJCTwvZz4mI3hhOwkJPC9nPiYjeGE7CQk8ZyBpZD0iZ3JvdXA4NzQxLTUyIiB0cmFuc2Zvcm09InRyYW5zbGF0ZSg0MC4yNzIyLC0wLjA0NTcyMjkpIj4mI3hhOwkJCTx0aXRsZSBpZD0idGl0bGU5NTQ2Ij5nMzYzOC4xOTg0OTwvdGl0bGU+JiN4YTsJCQk8ZyBpZD0ic2hhcGU4NzQyLTUzIj4mI3hhOwkJCQk8dGl0bGUgaWQ9InRpdGxlOTU0OCI+cmVjdDM2MTA8L3RpdGxlPiYjeGE7CQkJCSYjeGE7CQkJCQk8cmVjdCBpZD0icmVjdDk1NTAiIHg9IjAiIHk9IjI0Ljc1IiBzdHlsZT0iZmlsbDojRkZGRkZGO3N0cm9rZTojNTU2QThBO3N0cm9rZS13aWR0aDoxLjU7c3Ryb2tlLW1pdGVybGltaXQ6MzsiIHdpZHRoPSIyNyIgaGVpZ2h0PSI0Ni41Ii8+JiN4YTsJCQk8L2c+JiN4YTsJCQk8ZyBpZD0iZ3JvdXA4NzQzLTU1IiB0cmFuc2Zvcm09InRyYW5zbGF0ZSgwLjQ3MjUsLTAuNzUpIj4mI3hhOwkJCQk8dGl0bGUgaWQ9InRpdGxlOTU1MyI+ZzM2MzA8L3RpdGxlPiYjeGE7CQkJCTxnIGlkPSJzaGFwZTg3NDQtNTYiIHRyYW5zZm9ybT0idHJhbnNsYXRlKDEyLjI3NzUpIj4mI3hhOwkJCQkJPHRpdGxlIGlkPSJ0aXRsZTk1NTUiPnJlY3QzNjEyPC90aXRsZT4mI3hhOwkJCQkJPHJlY3QgaWQ9InJlY3Q5NTU3IiB4PSIwIiB5PSIyNi4yNSIgc3R5bGU9ImZpbGw6I0U1RTVFNTsiIHdpZHRoPSIxMy41IiBoZWlnaHQ9IjQ1Ii8+JiN4YTsJCQkJPC9nPiYjeGE7CQkJCTxnIGlkPSJzaGFwZTg3NDUtNTgiIHRyYW5zZm9ybT0idHJhbnNsYXRlKDAuMjc3NSwtMzIuMjUpIj4mI3hhOwkJCQkJPHRpdGxlIGlkPSJ0aXRsZTk1NjAiPnJlY3QzNjE0PC90aXRsZT4mI3hhOwkJCQkJPHJlY3QgaWQ9InJlY3Q5NTYyIiB4PSIwIiB5PSI2OS43NSIgc3R5bGU9ImZpbGw6IzJCQzdGNDsiIHdpZHRoPSIxMS45NyIgaGVpZ2h0PSIxLjUiLz4mI3hhOwkJCQk8L2c+JiN4YTsJCQkJPGcgaWQ9InNoYXBlODc0Ni02MCIgdHJhbnNmb3JtPSJ0cmFuc2xhdGUoMCwtMzkuNjQ1KSI+JiN4YTsJCQkJCTx0aXRsZSBpZD0idGl0bGU5NTY1Ij5wb2x5Z29uMzYxNjwvdGl0bGU+JiN4YTsJCQkJCTxyZWN0IGlkPSJyZWN0OTU2NyIgeD0iMCIgeT0iNjkuNzUiIHN0eWxlPSJmaWxsOm5vbmU7IiB3aWR0aD0iMTguNDUiIGhlaWdodD0iMS41Ii8+JiN4YTsJCQkJPC9nPiYjeGE7CQkJCTxnIGlkPSJzaGFwZTg3NDctNjIiIHRyYW5zZm9ybT0idHJhbnNsYXRlKDAsLTM5LjY0NSkiPiYjeGE7CQkJCQk8dGl0bGUgaWQ9InRpdGxlOTU3MCI+cG9seWxpbmUzNjE4PC90aXRsZT4mI3hhOwkJCQkJPHJlY3QgaWQ9InJlY3Q5NTcyIiB4PSIwIiB5PSI2OS43NSIgc3R5bGU9ImZpbGw6bm9uZTsiIHdpZHRoPSIxOC40NSIgaGVpZ2h0PSIxLjUiLz4mI3hhOwkJCQk8L2c+JiN4YTsJCQkJPGcgaWQ9InNoYXBlODc0OC02NCIgdHJhbnNmb3JtPSJ0cmFuc2xhdGUoMC4yNzc1LC0zNikiPiYjeGE7CQkJCQk8dGl0bGUgaWQ9InRpdGxlOTU3NSI+cmVjdDM2MjA8L3RpdGxlPiYjeGE7CQkJCQk8cmVjdCBpZD0icmVjdDk1NzciIHg9IjAiIHk9IjY5Ljc1IiBzdHlsZT0iZmlsbDojMkJDN0Y0OyIgd2lkdGg9IjExLjk3IiBoZWlnaHQ9IjEuNSIvPiYjeGE7CQkJCTwvZz4mI3hhOwkJCQk8ZyBpZD0ic2hhcGU4NzQ5LTY2IiB0cmFuc2Zvcm09InRyYW5zbGF0ZSgwLjI3NzUsLTM5Ljc1KSI+JiN4YTsJCQkJCTx0aXRsZSBpZD0idGl0bGU5NTgwIj5yZWN0MzYyMjwvdGl0bGU+JiN4YTsJCQkJCTxyZWN0IGlkPSJyZWN0OTU4MiIgeD0iMCIgeT0iNjkuNzUiIHN0eWxlPSJmaWxsOiMyQkM3RjQ7IiB3aWR0aD0iMTEuOTciIGhlaWdodD0iMS41Ii8+JiN4YTsJCQkJPC9nPiYjeGE7CQkJCTxnIGlkPSJzaGFwZTg3NTAtNjgiIHRyYW5zZm9ybT0idHJhbnNsYXRlKDEyLjI3NzUsLTMyLjI1KSI+JiN4YTsJCQkJCTx0aXRsZSBpZD0idGl0bGU5NTg1Ij5yZWN0MzYyNDwvdGl0bGU+JiN4YTsJCQkJCTxyZWN0IGlkPSJyZWN0OTU4NyIgeD0iMCIgeT0iNjkuNzUiIHN0eWxlPSJmaWxsOiM1NTZBOEE7IiB3aWR0aD0iMTMuNSIgaGVpZ2h0PSIxLjUiLz4mI3hhOwkJCQk8L2c+JiN4YTsJCQkJPGcgaWQ9InNoYXBlODc1MS03MCIgdHJhbnNmb3JtPSJ0cmFuc2xhdGUoMTIuMjc3NSwtMzYpIj4mI3hhOwkJCQkJPHRpdGxlIGlkPSJ0aXRsZTk1OTAiPnJlY3QzNjI2PC90aXRsZT4mI3hhOwkJCQkJPHJlY3QgaWQ9InJlY3Q5NTkyIiB4PSIwIiB5PSI2OS43NSIgc3R5bGU9ImZpbGw6IzU1NkE4QTsiIHdpZHRoPSIxMy41IiBoZWlnaHQ9IjEuNSIvPiYjeGE7CQkJCTwvZz4mI3hhOwkJCQk8ZyBpZD0ic2hhcGU4NzUyLTcyIiB0cmFuc2Zvcm09InRyYW5zbGF0ZSgxMi4yNzc1LC0zOS43NSkiPiYjeGE7CQkJCQk8dGl0bGUgaWQ9InRpdGxlOTU5NSI+cmVjdDM2Mjg8L3RpdGxlPiYjeGE7CQkJCQk8cmVjdCBpZD0icmVjdDk1OTciIHg9IjAiIHk9IjY5Ljc1IiBzdHlsZT0iZmlsbDojNTU2QThBOyIgd2lkdGg9IjEzLjUiIGhlaWdodD0iMS41Ii8+JiN4YTsJCQkJPC9nPiYjeGE7CQkJPC9nPiYjeGE7CQkJPGcgaWQ9InNoYXBlODc1My03NCIgdHJhbnNmb3JtPSJ0cmFuc2xhdGUoMC43NSwtNDAuNSkiPiYjeGE7CQkJCTx0aXRsZSBpZD0idGl0bGU5NjAxIj5yZWN0MzYzMjwvdGl0bGU+JiN4YTsJCQkJPHJlY3QgaWQ9InJlY3Q5NjAzIiB4PSIwIiB5PSI2OS43NSIgc3R5bGU9ImZpbGw6IzU1NkE4QTsiIHdpZHRoPSIxLjUiIGhlaWdodD0iMS41Ii8+JiN4YTsJCQk8L2c+JiN4YTsJCQk8ZyBpZD0ic2hhcGU4NzU0LTc2IiB0cmFuc2Zvcm09InRyYW5zbGF0ZSgwLjc1LC0zNi43NSkiPiYjeGE7CQkJCTx0aXRsZSBpZD0idGl0bGU5NjA2Ij5yZWN0MzYzNDwvdGl0bGU+JiN4YTsJCQkJPHJlY3QgaWQ9InJlY3Q5NjA4IiB4PSIwIiB5PSI2OS43NSIgc3R5bGU9ImZpbGw6IzU1NkE4QTsiIHdpZHRoPSIxLjUiIGhlaWdodD0iMS41Ii8+JiN4YTsJCQk8L2c+JiN4YTsJCQk8ZyBpZD0ic2hhcGU4NzU1LTc4IiB0cmFuc2Zvcm09InRyYW5zbGF0ZSgwLjc1LC0zMykiPiYjeGE7CQkJCTx0aXRsZSBpZD0idGl0bGU5NjExIj5yZWN0MzYzNjwvdGl0bGU+JiN4YTsJCQkJPHJlY3QgaWQ9InJlY3Q5NjEzIiB4PSIwIiB5PSI2OS43NSIgc3R5bGU9ImZpbGw6IzU1NkE4QTsiIHdpZHRoPSIxLjUiIGhlaWdodD0iMS41Ii8+JiN4YTsJCQk8L2c+JiN4YTsJCTwvZz4mI3hhOwk8L2c+JiN4YTs8L2c+JiN4YTs8L3N2Zz4=;rounded=0;sketch=0;" parent="8pe4ZQPsovDr-rk-gTb1-43" vertex="1">
          <mxGeometry y="1" width="167.5727777777778" height="170" as="geometry" />
        </mxCell>
        <mxCell id="8pe4ZQPsovDr-rk-gTb1-40" value="" style="shape=image;verticalLabelPosition=bottom;labelBackgroundColor=#ffffff;verticalAlign=top;aspect=fixed;imageAspect=0;image=data:image/svg+xml,PHN2ZyB4bWxuczpjYz0iaHR0cDovL2NyZWF0aXZlY29tbW9ucy5vcmcvbnMjIiB4bWxuczpkYz0iaHR0cDovL3B1cmwub3JnL2RjL2VsZW1lbnRzLzEuMS8iIHhtbG5zOmlua3NjYXBlPSJodHRwOi8vd3d3Lmlua3NjYXBlLm9yZy9uYW1lc3BhY2VzL2lua3NjYXBlIiB4bWxuczpyZGY9Imh0dHA6Ly93d3cudzMub3JnLzE5OTkvMDIvMjItcmRmLXN5bnRheC1ucyMiIHhtbG5zOnNvZGlwb2RpPSJodHRwOi8vc29kaXBvZGkuc291cmNlZm9yZ2UubmV0L0RURC9zb2RpcG9kaS0wLmR0ZCIgeG1sbnM6c3ZnPSJodHRwOi8vd3d3LnczLm9yZy8yMDAwL3N2ZyIgeG1sbnM9Imh0dHA6Ly93d3cudzMub3JnLzIwMDAvc3ZnIiB4bWxuczp4bGluaz0iaHR0cDovL3d3dy53My5vcmcvMTk5OS94bGluayIgdmVyc2lvbj0iMS4xIiBpZD0ic3ZnMTgwNjQ4IiBpbmtzY2FwZTp2ZXJzaW9uPSIwLjkyLjMgKDI0MDU1NDYsIDIwMTgtMDMtMTEpIiBzb2RpcG9kaTpkb2NuYW1lPSJqYXZhX2xldHRlcmluZy5zdmciIHg9IjBweCIgeT0iMHB4IiB2aWV3Qm94PSIwIDAgMzAuNTEgNTYuNzQiIHN0eWxlPSJlbmFibGUtYmFja2dyb3VuZDpuZXcgMCAwIDMwLjUxIDU2Ljc0OyIgeG1sOnNwYWNlPSJwcmVzZXJ2ZSI+JiN4YTs8c29kaXBvZGk6bmFtZWR2aWV3IGJvcmRlcmNvbG9yPSIjNjY2NjY2IiBib3JkZXJvcGFjaXR5PSIxIiBmaXQtbWFyZ2luLWJvdHRvbT0iMCIgZml0LW1hcmdpbi1sZWZ0PSIwIiBmaXQtbWFyZ2luLXJpZ2h0PSIwIiBmaXQtbWFyZ2luLXRvcD0iMCIgZ3JpZHRvbGVyYW5jZT0iMTAiIGd1aWRldG9sZXJhbmNlPSIxMCIgaWQ9Im5hbWVkdmlldzE4MDY1MCIgaW5rc2NhcGU6Y3VycmVudC1sYXllcj0ic3ZnMTgwNjQ4IiBpbmtzY2FwZTpjeD0iMjAuMTI5MDk0IiBpbmtzY2FwZTpjeT0iMzcuODI1MDY1IiBpbmtzY2FwZTpwYWdlb3BhY2l0eT0iMCIgaW5rc2NhcGU6cGFnZXNoYWRvdz0iMiIgaW5rc2NhcGU6d2luZG93LWhlaWdodD0iMTAxNyIgaW5rc2NhcGU6d2luZG93LW1heGltaXplZD0iMSIgaW5rc2NhcGU6d2luZG93LXdpZHRoPSIxOTIwIiBpbmtzY2FwZTp3aW5kb3cteD0iLTgiIGlua3NjYXBlOndpbmRvdy15PSItOCIgaW5rc2NhcGU6em9vbT0iMTEuMTY0NTUiIG9iamVjdHRvbGVyYW5jZT0iMTAiIHBhZ2Vjb2xvcj0iI2ZmZmZmZiIgc2hvd2dyaWQ9ImZhbHNlIj4mI3hhOwk8L3NvZGlwb2RpOm5hbWVkdmlldz4mI3hhOzxnIGlkPSJnMTgwNjQ2IiB0cmFuc2Zvcm09InRyYW5zbGF0ZSgtMi45MDMxOCwtMC43NDk1KSI+JiN4YTsJPHRpdGxlIGlkPSJ0aXRsZTE4MDU3NCI+UGFnZS0xPC90aXRsZT4mI3hhOwk8ZyBpZD0iZ3JvdXAxMTkwLTEiIHRyYW5zZm9ybT0idHJhbnNsYXRlKDAsLTAuNzUpIj4mI3hhOwkJPHRpdGxlIGlkPSJ0aXRsZTE4MDU3NiI+SmF2YSAoTGV0dGVyaW5nKTwvdGl0bGU+JiN4YTsJCTxnIGlkPSJzaGFwZTExOTEtMiIgdHJhbnNmb3JtPSJ0cmFuc2xhdGUoMzEuOTEyOCwtMTEuMzk5OSkiPiYjeGE7CQkJPHRpdGxlIGlkPSJ0aXRsZTE4MDU3OCI+U2hlZXQuMTE5MTwvdGl0bGU+JiN4YTsJCQk8cGF0aCBpZD0icGF0aDE4MDU4MCIgaW5rc2NhcGU6Y29ubmVjdG9yLWN1cnZhdHVyZT0iMCIgc3R5bGU9ImZpbGw6I0U3NkYwMDsiIGQ9Ik0wLjIxLDU3LjY1SDB2LTAuMTJoMC41OHYwLjEySDAuMzZ2MC41OUgwLjIxICAgICBWNTcuNjV6IE0xLjM2LDU3LjY4TDEuMzYsNTcuNjhsLTAuMjEsMC41NmgtMC4xbC0wLjIxLTAuNTZsMCwwdjAuNTZIMC43di0wLjcxaDAuMmwwLjIsMC41bDAuMTktMC41SDEuNXYwLjcxSDEuMzZWNTcuNjh6Ii8+JiN4YTsJCTwvZz4mI3hhOwkJPGcgaWQ9InNoYXBlMTE5Mi00IiB0cmFuc2Zvcm09InRyYW5zbGF0ZSg3LjAwNTU5LC0yMS41MTY1KSI+JiN4YTsJCQk8dGl0bGUgaWQ9InRpdGxlMTgwNTgzIj5TaGVldC4xMTkyPC90aXRsZT4mI3hhOwkJCTxwYXRoIGlkPSJwYXRoMTgwNTg1IiBpbmtzY2FwZTpjb25uZWN0b3ItY3VydmF0dXJlPSIwIiBzdHlsZT0iZmlsbDojNTM4MkExOyIgZD0iTTUuOTgsNTMuMTJjMCwwLTEuNDgsMC44NiwxLjA2LDEuMTUgICAgIGMzLjA5LDAuMzYsNC42NiwwLjMsOC4wNi0wLjM0YzAsMCwwLjksMC41NiwyLjE0LDEuMDVDOS42Miw1OC4yNCwwLDU0Ljc5LDUuOTgsNTMuMTJ6Ii8+JiN4YTsJCTwvZz4mI3hhOwkJPGcgaWQ9InNoYXBlMTE5My02IiB0cmFuc2Zvcm09InRyYW5zbGF0ZSg1LjQ2NjQ3LC0yNi4yMzUxKSI+JiN4YTsJCQk8dGl0bGUgaWQ9InRpdGxlMTgwNTg4Ij5TaGVldC4xMTkzPC90aXRsZT4mI3hhOwkJCTxwYXRoIGlkPSJwYXRoMTgwNTkwIiBpbmtzY2FwZTpjb25uZWN0b3ItY3VydmF0dXJlPSIwIiBzdHlsZT0iZmlsbDojNTM4MkExOyIgZD0iTTYuNTksNTMuNTdjMCwwLTEuNjcsMS4yNCwwLjg4LDEuNSAgICAgYzMuMywwLjM0LDUuOSwwLjM3LDEwLjQtMC41YzAsMCwwLjYyLDAuNjMsMS42LDAuOThDMTAuMjYsNTguMjQsMCw1NS43Niw2LjU5LDUzLjU3eiIvPiYjeGE7CQk8L2c+JiN4YTsJCTxnIGlkPSJzaGFwZTExOTQtOCIgdHJhbnNmb3JtPSJ0cmFuc2xhdGUoMTMuNTQzOCwtMzQuMDI2MykiPiYjeGE7CQkJPHRpdGxlIGlkPSJ0aXRsZTE4MDU5MyI+U2hlZXQuMTE5NDwvdGl0bGU+JiN4YTsJCQk8cGF0aCBpZD0icGF0aDE4MDU5NSIgaW5rc2NhcGU6Y29ubmVjdG9yLWN1cnZhdHVyZT0iMCIgc3R5bGU9ImZpbGw6I0U3NkYwMDsiIGQ9Ik02LjM2LDU0LjE0YzEuODgsMi4xNi0wLjQ5LDQuMS0wLjQ5LDQuMSAgICAgczQuNzctMi40NiwyLjU4LTUuNTRjLTIuMDUtMi44Ny0zLjYxLTQuMyw0Ljg3LTkuMjJDMTMuMzIsNDMuNDgsMCw0Ni44LDYuMzYsNTQuMTR6Ii8+JiN4YTsJCTwvZz4mI3hhOwkJPGcgaWQ9InNoYXBlMTE5NS0xMCIgdHJhbnNmb3JtPSJ0cmFuc2xhdGUoMCwtMTguMDIwMikiPiYjeGE7CQkJPHRpdGxlIGlkPSJ0aXRsZTE4MDU5OCI+U2hlZXQuMTE5NTwvdGl0bGU+JiN4YTsJCQk8cGF0aCBpZD0icGF0aDE4MDYwMCIgaW5rc2NhcGU6Y29ubmVjdG9yLWN1cnZhdHVyZT0iMCIgc3R5bGU9ImZpbGw6IzUzODJBMTsiIGQ9Ik0yOS45OCw1Mi43N2MwLDAsMS4xMSwwLjkxLTEuMjEsMS42MSAgICAgYy00LjQsMS4zMy0xOC4zLDEuNzMtMjIuMTcsMC4wNWMtMS4zOC0wLjYsMS4yMi0xLjQ0LDIuMDQtMS42MmMwLjg1LTAuMTgsMS4zNC0wLjE1LDEuMzQtMC4xNUM4LjQ0LDUxLjU4LDAsNTQuOCw1LjcsNTUuNzIgICAgIEMyMS4yMyw1OC4yNCwzNC4wMSw1NC41OSwyOS45OCw1Mi43N3oiLz4mI3hhOwkJPC9nPiYjeGE7CQk8ZyBpZD0ic2hhcGUxMTk2LTEyIiB0cmFuc2Zvcm09InRyYW5zbGF0ZSgzLjU4NDgzLC0zMS4wNjAyKSI+JiN4YTsJCQk8dGl0bGUgaWQ9InRpdGxlMTgwNjAzIj5TaGVldC4xMTk2PC90aXRsZT4mI3hhOwkJCTxwYXRoIGlkPSJwYXRoMTgwNjA1IiBpbmtzY2FwZTpjb25uZWN0b3ItY3VydmF0dXJlPSIwIiBzdHlsZT0iZmlsbDojNTM4MkExOyIgZD0iTTEwLjEyLDUzLjk4YzAsMC03LjA3LDEuNjgtMi41LDIuMjkgICAgIGMxLjkyLDAuMjYsNS43NywwLjIsOS4zNS0wLjFjMi45My0wLjI0LDUuODctMC43Nyw1Ljg3LTAuNzdzLTEuMDMsMC40NC0xLjc4LDAuOTVDMTMuODgsNTguMjQsMCw1Ny4zNiwzLjk5LDU1LjQzICAgICBDNy4zNyw1My44LDEwLjEyLDUzLjk4LDEwLjEyLDUzLjk4eiIvPiYjeGE7CQk8L2c+JiN4YTsJCTxnIGlkPSJzaGFwZTExOTctMTQiIHRyYW5zZm9ybT0idHJhbnNsYXRlKDI2LjI0NzcsLTI4LjAzNTIpIj4mI3hhOwkJCTx0aXRsZSBpZD0idGl0bGUxODA2MDgiPlNoZWV0LjExOTc8L3RpdGxlPiYjeGE7CQkJPHBhdGggaWQ9InBhdGgxODA2MTAiIGlua3NjYXBlOmNvbm5lY3Rvci1jdXJ2YXR1cmU9IjAiIHN0eWxlPSJmaWxsOiM1MzgyQTE7IiBkPSJNMC4xNSw1OC4wNWM3LjMtMy43OSwzLjkyLTcuNDQsMS41Ny02Ljk1ICAgICBjLTAuNTgsMC4xMi0wLjg0LDAuMjMtMC44NCwwLjIzczAuMjItMC4zNCwwLjYyLTAuNDljNC42Ny0xLjYzLDguMjUsNC44NC0xLjUsNy40QzAsNTguMjQsMC4xMSw1OC4xNCwwLjE1LDU4LjA1eiIvPiYjeGE7CQk8L2c+JiN4YTsJCTxnIGlkPSJzaGFwZTExOTgtMTYiIHRyYW5zZm9ybT0idHJhbnNsYXRlKDExLjc1ODksLTM1LjM5MDUpIj4mI3hhOwkJCTx0aXRsZSBpZD0idGl0bGUxODA2MTMiPlNoZWV0LjExOTg8L3RpdGxlPiYjeGE7CQkJPHBhdGggaWQ9InBhdGgxODA2MTUiIGlua3NjYXBlOmNvbm5lY3Rvci1jdXJ2YXR1cmU9IjAiIHN0eWxlPSJmaWxsOiNFNzZGMDA7IiBkPSJNMTAuMjMsMzYuODljMCwwLDQuMDUsNC4wNS0zLjgzLDEwLjI3ICAgICBjLTYuMzIsNC45OS0xLjQ0LDcuODMtMC4wMSwxMS4wOEMyLjcxLDU0LjkxLDAsNTEuOTksMS44Miw0OS4yNkM0LjQ4LDQ1LjI2LDExLjg2LDQzLjMyLDEwLjIzLDM2Ljg5eiIvPiYjeGE7CQk8L2c+JiN4YTsJCTxnIGlkPSJzaGFwZTExOTktMTgiIHRyYW5zZm9ybT0idHJhbnNsYXRlKDguOTIwMjcsLTE3LjQ5NTgpIj4mI3hhOwkJCTx0aXRsZSBpZD0idGl0bGUxODA2MTgiPlNoZWV0LjExOTk8L3RpdGxlPiYjeGE7CQkJPHBhdGggaWQ9InBhdGgxODA2MjAiIGlua3NjYXBlOmNvbm5lY3Rvci1jdXJ2YXR1cmU9IjAiIHN0eWxlPSJmaWxsOiM1MzgyQTE7IiBkPSJNNS41LDU3Ljc5YzcuMDEsMC40NSwxNy43Ny0wLjI1LDE4LjAzLTMuNTYgICAgIGMwLDAtMC40OSwxLjI2LTUuNzksMi4yNWMtNS45OSwxLjEzLTEzLjM2LDEtMTcuNzQsMC4yOEMwLDU2Ljc2LDAuOSw1Ny41LDUuNSw1Ny43OXoiLz4mI3hhOwkJPC9nPiYjeGE7CQk8ZyBpZD0ic2hhcGUxMjAwLTIwIiB0cmFuc2Zvcm09InRyYW5zbGF0ZSg4LjA4NDMxLC0zLjAzNDMpIj4mI3hhOwkJCTx0aXRsZSBpZD0idGl0bGUxODA2MjMiPlNoZWV0LjEyMDA8L3RpdGxlPiYjeGE7CQkJPHBhdGggaWQ9InBhdGgxODA2MjUiIGlua3NjYXBlOmNvbm5lY3Rvci1jdXJ2YXR1cmU9IjAiIHN0eWxlPSJmaWxsOiNFNzZGMDA7IiBkPSJNNS4xOSw1NmMtMC42NiwwLjU4LTEuMzYsMC45LTEuOTksMC45ICAgICBjLTAuODksMC0xLjM3LTAuNTQtMS4zNy0xLjRjMC0wLjkzLDAuNTEtMS42MSwyLjU5LTEuNjFoMC43N1Y1NnogTTcuMDEsNTguMDZ2LTYuMzdjMC0xLjYzLTAuOTItMi43LTMuMTYtMi43ICAgICBjLTEuMzEsMC0yLjQ1LDAuMzItMy4zOCwwLjczbDAuMjYsMS4xM2MwLjc0LTAuMjcsMS42OC0wLjUyLDIuNjItMC41MmMxLjI5LDAsMS44NCwwLjUyLDEuODQsMS41OXYwLjgxSDQuNTUgICAgIEMxLjQxLDUyLjczLDAsNTMuOTUsMCw1NS43N2MwLDEuNTgsMC45MywyLjQ3LDIuNjgsMi40N2MxLjEzLDAsMS45Ny0wLjQ2LDIuNzYtMS4xNGwwLjE0LDAuOTZINy4wMXoiLz4mI3hhOwkJCTxwYXRoIGlkPSJwYXRoMTgwNjI3IiBpbmtzY2FwZTpjb25uZWN0b3ItY3VydmF0dXJlPSIwIiBzdHlsZT0iZmlsbDpub25lOyIgZD0iTTUuMTksNTZjLTAuNjYsMC41OC0xLjM2LDAuOS0xLjk5LDAuOSAgICAgYy0wLjg5LDAtMS4zNy0wLjU0LTEuMzctMS40YzAtMC45MywwLjUxLTEuNjEsMi41OS0xLjYxaDAuNzdWNTYgTTcuMDEsNTguMDZ2LTYuMzdjMC0xLjYzLTAuOTItMi43LTMuMTYtMi43ICAgICBjLTEuMzEsMC0yLjQ1LDAuMzItMy4zOCwwLjczbDAuMjYsMS4xM2MwLjc0LTAuMjcsMS42OC0wLjUyLDIuNjItMC41MmMxLjI5LDAsMS44NCwwLjUyLDEuODQsMS41OXYwLjgxSDQuNTUgICAgIEMxLjQxLDUyLjczLDAsNTMuOTUsMCw1NS43N2MwLDEuNTgsMC45MywyLjQ3LDIuNjgsMi40N2MxLjEzLDAsMS45Ny0wLjQ2LDIuNzYtMS4xNGwwLjE0LDAuOTZINy4wMUw3LjAxLDU4LjA2Ii8+JiN4YTsJCTwvZz4mI3hhOwkJPGcgaWQ9InNoYXBlMTIwMS0yMyIgdHJhbnNmb3JtPSJ0cmFuc2xhdGUoMTYuMTczMywtMy4yMTM1OCkiPiYjeGE7CQkJPHRpdGxlIGlkPSJ0aXRsZTE4MDYzMCI+U2hlZXQuMTIwMTwvdGl0bGU+JiN4YTsJCQk8cGF0aCBpZD0icGF0aDE4MDYzMiIgaW5rc2NhcGU6Y29ubmVjdG9yLWN1cnZhdHVyZT0iMCIgc3R5bGU9ImZpbGw6I0U3NkYwMDsiIGQ9Ik01LjAxLDU4LjI0SDIuNzRMMCw0OS4zM2gxLjk5bDEuNyw1LjQ4ICAgICBsMC4zNywxLjY0YzAuODYtMi4zOCwxLjQ3LTQuNzksMS43OC03LjEyaDEuOTNDNy4yNSw1Mi4yNiw2LjMyLDU1LjQ5LDUuMDEsNTguMjR6Ii8+JiN4YTsJCTwvZz4mI3hhOwkJPGcgaWQ9InNoYXBlMTIwMi0yNSIgdHJhbnNmb3JtPSJ0cmFuc2xhdGUoMjQuNzI1NiwtMy4wMzQzKSI+JiN4YTsJCQk8dGl0bGUgaWQ9InRpdGxlMTgwNjM1Ij5TaGVldC4xMjAyPC90aXRsZT4mI3hhOwkJCTxwYXRoIGlkPSJwYXRoMTgwNjM3IiBpbmtzY2FwZTpjb25uZWN0b3ItY3VydmF0dXJlPSIwIiBzdHlsZT0iZmlsbDojRTc2RjAwOyIgZD0iTTUuMTksNTZjLTAuNjYsMC41OC0xLjM2LDAuOS0xLjk5LDAuOSAgICAgYy0wLjg5LDAtMS4zOC0wLjU0LTEuMzgtMS40YzAtMC45MywwLjUyLTEuNjEsMi42LTEuNjFoMC43N1Y1NnogTTcuMDIsNTguMDZ2LTYuMzdjMC0xLjYzLTAuOTQtMi43LTMuMTctMi43ICAgICBjLTEuMzEsMC0yLjQ1LDAuMzItMy4zOCwwLjczbDAuMjYsMS4xM2MwLjc0LTAuMjcsMS42OS0wLjUyLDIuNjItMC41MmMxLjI5LDAsMS44NCwwLjUyLDEuODQsMS41OXYwLjgxSDQuNTUgICAgIEMxLjQxLDUyLjczLDAsNTMuOTUsMCw1NS43N2MwLDEuNTgsMC45MywyLjQ3LDIuNjgsMi40N2MxLjEzLDAsMS45Ny0wLjQ2LDIuNzYtMS4xNGwwLjE0LDAuOTZINy4wMnoiLz4mI3hhOwkJPC9nPiYjeGE7CQk8ZyBpZD0ic2hhcGUxMjAzLTI3IiB0cmFuc2Zvcm09InRyYW5zbGF0ZSgyLjkwMzE4KSI+JiN4YTsJCQk8dGl0bGUgaWQ9InRpdGxlMTgwNjQwIj5TaGVldC4xMjAzPC90aXRsZT4mI3hhOwkJCTxwYXRoIGlkPSJwYXRoMTgwNjQyIiBpbmtzY2FwZTpjb25uZWN0b3ItY3VydmF0dXJlPSIwIiBzdHlsZT0iZmlsbDojRTc2RjAwOyIgZD0iTTMuMTgsNTYuNTRjLTAuNTIsMC43Ni0xLjM2LDEuMzYtMi4yOCwxLjcgICAgIEwwLDU3LjE4YzAuNy0wLjM2LDEuMy0wLjk0LDEuNTgtMS40OGMwLjI0LTAuNDgsMC4zNC0xLjEsMC4zNC0yLjU4VjQyLjk1aDEuOTR2MTAuMDNDMy44Niw1NC45NiwzLjcsNTUuNzYsMy4xOCw1Ni41NHoiLz4mI3hhOwkJPC9nPiYjeGE7CTwvZz4mI3hhOzwvZz4mI3hhOzwvc3ZnPg==;rounded=0;sketch=0;" parent="8pe4ZQPsovDr-rk-gTb1-43" vertex="1">
          <mxGeometry x="114" y="94" width="37.33" height="68.63" as="geometry" />
        </mxCell>
        <mxCell id="0uQLobWkQNngt7RpSgQ7-1" value="" style="shape=image;verticalLabelPosition=bottom;labelBackgroundColor=default;verticalAlign=top;aspect=fixed;imageAspect=0;image=data:image/png,iVBORw0KGgoAAAANSUhEUgAAASAAAAEgCAQAAAC+imYLAAAABGdBTUEAALGPC/xhBQAAACBjSFJNAAB6JgAAgIQAAPoAAACA6AAAdTAAAOpgAAA6mAAAF3CculE8AAAAAmJLR0QA/4ePzL8AAB+gSURBVHja7Z15nE/V/8efs2DGNkyW7MtYxowlWyqSLVqIQotsfX+ljUh9S/WlUkLfEmkRvuprqfiGRCrRInuoyFLZkiVLGOtglt8fjD7z+dz9nns/n/u553UePR6Zzzn3nuV1z/I+7wUkJGwgTnaBJmKoSTkyyJZdIWEebfiVXHI5TH/ZGRJm0YRMci+lAbJDlKdovyCNThRlHfMNLkfxrKN+wL/PUJcdBt/VjOspwFKWSIJFC4aRdXEm+Z5yhko8HjD7XEifGSTelEsl5pMguz4a0CUfEX7mMt0SlTkZQqBcbtctF8u0fCXGyc6PBqwKIsJqiumUmKdAn1z2Ulyn3PigEpkky+73OmopUOErzcWliyJ99GeU4QolHpQD4HWMVKTCPOJV8hdmpyqBsmmm+p7+iiVWyQHwNmLZrUKGacQqlnhFlT655LJWRfjai2yVEnXkIHgZ7TXIMF4hfz3OaRJIWSJ0C+dV84+UgxBpaMbrzGQYlxvIO0OTDMNC5qsVOvTJJYPyQaXa5hM5Bqc9Bi6MEniA6Uyhu8qsKCFUppNzcWiO01snb3FO69Ah/yXF/br0ySWXmfnKXMkJnfwddGrZ5OKVyQVpk5QdOYpWQYPzPkkaue/VJUM2PS/lLsMRQwTK5YZLZdI5rJv7fc092hNBi+ZwOchO4r2Q4dnB1aq5vzNAhvN0oiiptGSuQfrksp321KU01dhrIPdpVZKXZ3FI7t1ykJ3Ez4oUeE5xn1Hj0mIX7nSfYls6sF8xdxk5zE4hXnW7upLqIblfiBD65LJMYds8TpXereRAO4VUjUE6Ro98eWPYETEEyqV2vrql8aNGXg9Jr712aEzT+C2JGUyl6KV/t6ZaBNX87oD/7833NNDIK0WPjuEZ3S99K42ANJ5kSwTNP7kc4d+0JI7SzNfNK/WIHMN0A0N1lm0RRZ3AdJgDBnLt986AeE0jcT0NffGhXMYRuQdyora1fXNYkJtoB1CNwj4hUJokkJll9F7WcJiVDAg4Q/n7dJKmM2pdWMA+tvKSrm6lD/B2wPbxL0Zo3LH/M2I3x6LT56p9kEA/fgnIud43s7IKWoR0XiaTVPYA77o4hPsYRjOSiacyXZmpqi7mTPpdZWs9VOEUN9TfBBqtckf+CdeG5F3l0vDl8BKJQe9uwHoXCZQTsjRVZ7yipUgua/xNoIka3biKbgG7tFocd2XwsoOuRPJQlEUuUqhnwJubMvOSXZuSZoCvMV6nI7fxEIUpxwQNpVGx6RnVupZwVUS5mCbEcDPf6OTb7G8CvWxIfnvStWHbSgGN2nZydSeUo2oQEJjW+fsYf8aQXLaIa/UZy3mNXxewxVUBRyVBPehzArmJeZq/5rIw4uZwnxMoM6IG46juRebGiCPQaTkDRQ6O6ebIiDgCZUoCRQ5K6uYoJZcwSSA0DurVdXLUkwSSBELzoK7dX50lgSSBtDCYghq/9qCKJJAkEEA2hxT/XplRqmXKMVrll7P8KQnkj+b/ySwepyVJpKhcQz7KIyrb509C3CrkHaS7UI6q3MEYlrneokibw4WhIRNYzHQGcIWGf4pUl64FjjGb/kGKWsmq1lmTQ05bbfhdJe9xrsuXswDX8RJrXVMAeUhjDKrSiwks4kO6eI0+vfJdfmawkKe5VsHzxD2Od/A2XqOtyg1XGVXjn2O8Q2fSqEpTHtGwsT+i6rOsNHcxwwUNgvdCPs9Y6vMwH7AnX76JXqJPJRUT5EyWMYqOF+UtsbzgqPX6LkZpGvABVLRlv3qAK3Sen8CtvK/rAMZeWnjReUMhWjCEBRxVydfdOwQapKtzs4E3DZjYWU0ZvM01Bo2WqgV9qcbTXsNa2ol04zMHF7UtjGQpZ3RyzfUOgUaE1ZFBX5O396mGzP2C005STPZKVV4w5A7GqbTcOwS6NywdlMl7ukuWMhoYdi2Vl34xpGoRini66KqIOZVmeIdAdVzvnL94wZDPRDVcaWq7u8HWu6AZs11W088ll4e9Q6AYDrnYMYd4SoB9VEtOGXzf9waCJeijFhM56yqB6nvpHPaxa+4KHhemr9hB09tqXvpO0yujOVRjqmsz0VFv2SE/4UKXnGUcJYTWurOu6v7Xwm1B05jliiu+Bd4SJF7tuML5e1R0oN49NGeETxxywtuc7x0n0BBvEaig4R2FlbSeaxyreV/V+WCmpsWG3V1jbw46SqDmXrvMcOqweoQHHA4W/JCiGd9kx0MUl2KyY4vZGQp5jUAvOtIRs20eoI3hJnYFbUAfcG3pd8Y131I8hxuFd8KfdHOt9gnczQxWs4Y59Be8Vde79hjjwMnsJe8RKElwN8wWIn3xBlqyXTCBbvJiN/worPknuRd/oSiThTqMSPJiJ7whqPnrqIUf0UuYT4AfvdkBdwlp/GQfB0BKZ7OQPhzvxcbH8JGAw+f/4W8U1QmZZ9TnSAnvNf05283eSxMk4EkBx5EvnJFixVgu14OelCOLs5zmDJmc5iwnOc9xsskghxKMsunGfD23sFeyB4DbmGbbmeYUlhNPErGUIJYSxFGceIpRkCLEc4KFjHXLwiPGBXeXs/3ufTQITdjneJ+vp7g7jenieFPekMFnQ1BJMdie2PRvd5oyw+FmDJNsUcRlrHG453e505CFjvpIfVAyRRXF+dZRArnk/eglB+lzj2SJJgo5quv5rTuNqOWQGmYWfSRDdFGQeY4RqK9bjZjryOzTS7LD4CzkjMvzvZqubYSiuQPVHyiZYRiFHdkLPeFmE1b4W2M3ArbTorWoj1u57oi33IBXmC2wO9ax3Uum/6aQxWEOcYi/hD71ODeyTGgEx0kGfNQqyJStIpat1JQTgakh38QGVrKC3wQ9MYVVwrzGnqcGu93tkAd9E/5N/GZ1Ep2FmEO2MGQKaSRNd/+LSuBPSQZbqiqz6GT7jvwOQXYcFqNh26l+FkVpJVcmy4gnnbvoQwE2cs7yUzYRG+RizwoW83I4uqA0p+VMIsRq/UVK29iN2r9a6hCur+gtOfzCzAaes2z6V9KWm75cNtjU3LKB6hqhGGUym361bHxzpa3NdM9wruSfyoEXmqZQ1NI4DLDhXalA+OhTzGGHAH5Mv9HU0lhYvaXPCafm+XA54I74euxr6UhjVazyTbjok+qw/2M/p5EWlHpvs/y2rlYFOmZ337FUpQ5p1CGdVLdUsH2KD+hFtsky0yxviM/yC1vYzBa28KtxuZQRAhUghXRSSSeVVBLlyLqGD+lpkkIl2UgFAde/O9jEVjaxha32YrLeyQrOyQUlbOkD00tLN+GuBDfzhFVFs3/JIQx7etX0qH3uQC0+sSJqrK7rsVQmN5LZXU0N3ZgZVtIdaptiddxgQ91MQhwm0thU/m2OXIx2NE8gaVocGUjkQ5NHl1GccKAWpgm0Wo5dhKAGT5vK31i4M3SLbFgkdyARks4ajkwGMFv4+/epyfy099YV+dFHji0jG9/Q2vDh51fBvoByuJFF5pcw2MN9cuQiBK1oZzDnI8JdSY1Ro48RTJALSISkrw2NV5LwML9rtcSI+hd2g9goP/8ImYPSDeS6T/AG+hQ9tW7G9AmUSS/OytGLCOg7HI2nv+B3PsJW+w8ZJBeQCLEn07tQuEPwGz/So4axG44Y5tFJTgARgMas1/x9JVcJfNseGnBEO4sxpaVc7uVPOXoRAO2T2NVC6ZPNXXr0wbDW20H6kCvHL+xopvnro0Lf9SLLjCxOxvEqgw3l28I69pNEKleHU98/KrGbKqq/VWGbxvX3ObJM3W4upxVZYitfiB90N12z8h01SzCUDLn5FerFTd348BVVlfkelAUgma7MNWRLn0FVY6Qwpyb0uaYJ7Bl6MifkrzWZQ12FvN00pAtdXYsP6D3UUnEOU4w/FEI6HaYPC4P+dg3TqK7zlmOU4bzoqhfTtH7Mor1KubKKhre9Nd402NGv+A5B83F1ujM+KDSm8+lqlfoMVMi7X4UoZdmg+57W4rmvrW07QvN0EDptrvc4gQK/6Jku6m4qn8PiFCIcZmlsuVM4pvOe18R2UiI9+EnTv4R2RLz/KZRpFSUEAqjBYpcIpKwZqGQRNkmzxkN03nOQQZQR0TUxtGCS7lZ4is5TOiuUmRdFBIIY7hXmLcz80vKdQs66OhsSfc3pc8zjNjuuf6syjN+EKH4nKZ4oakYRgQDaukAhJf3opoqePvRgVF3wMOPVrefVBIlF6cPXbOd5ahjqun06v2coRGGI5ZEoOyEt4WHH3/GHQQGiPoG2GHzjZfTne37mn5Q3kj2W1vzXtM27/p5dKXzsCUpG1QyktpiIS0pXC5UUTT9n6NbUvGOMLBZyZ/4ItsEzUC+28RW9TfuoqaLze7KiT9KiURjMe4yjT/9J4W/9FeX9+qrI5rfIcdzIB+zn+b/fGBs0FU6lmsXVXxtqM1TPqCPQl+IFcAEI1UqM5x+KORvp3nNeYbEOJRjG+0o/lLRh0ZihshjlQd2PWdkoW8Lgd1fFiK1U87bUrGUlm+6B24TOQM1txGcvzrOa84+677/KUTcHnXTsybtYFfK3VNXc2rZk/7LpWLNdKIHsRSkdQFeVX8prekGPPnXZso49eYaCSo36R99BQwW2tQH1WL3DlsKmyp4U44yiY7Y0dmqUOa9osOblJayOg8aFSp5/7tAckVsV69iUo7Zrc4PSg4cKcAMS6CCyAiN1SPlN1B3jxzpW7/8ovu9yzb1MNi8HfaKFGCxA3LlQeQGM4VUBDd3NbN5hOt8bCIzZMcoI1NAxd1ynVXeL83VK/sVEutGUJtzCq/whoC6LtcQ8z7iomvB+lF1l1GSPY7VW13ao63LAiTl6HvUfciikbnBaoBrwyJsE6slhx+r8q6Y6ag8X1UneNeI1qofjfhGPMEjDgttrBIqhDUscVWRtoVOD9o5KnwK1hAwe/js6OC3uYJCO+a13CJRAK4Yb1Fiwnp4zUJNEBtoMuaKfhil9O2poyXwH/ECv4DXm6rquHWzBtaRxTGKtzSeUIJEkqlKDWpYj7BjHIm4kx+BdVRcGc40jtchhIG+YK9KIA0Kn4fk0N/jmwa5uCiM7/WQ6lnIjpgrfE2VxjxXW1Wa3kNcfZ5xRMxFJoHxpG5dbmi/K8RxHhNUik9usTlyV2Wrz5Tt5UueiVRJI3ZlCNRuLTjH62R69C1pb19tZ+8qwz/KrV9DdkrcsSaBcctlDmu2dSxzdWG6zHrbt7XdZ3PG0s/xGSaBcNgvUU2hsa1dU3t7LY0xrCWUwxtSORxIoNC0nWfApqgqvWjQzb2zvxcmmX/ii7cb6nUAfOeTkvTiPckiQJZpBHaDKvGu6moeQsI7zPEZ3eyGWVHGc11hiutQIrV2QFoHiGcjP3CIJ5CL20poxjnpi+st0ifqsYKqakr46ga5iLWMtefw8LHlgEQtpxHKH33HEQpkYerGJHsYJVIJxLKOBxSrKGcja8nI/HTno+Hv+sliuLDP4JjTgghKBerDFlrfzo5INprGYekx0xYngERtlr2M9w/Lf/gUTqCaLmGFRfJ6HTMkH01jBHpfeZM9mJIHn+SnQyi+QQAV4kg32xNaSQBYxjPmmL02t4ZztJ9TmK2bl2bX+TaAmbGSUDcswkVX0I25iNbVdeI8YM6rubLlglp5HoHosFVZ9GRjBGmqxQsPpVuTMQBeQzCQG/U2gEcLiwWebjHQuETgoX9DHIwQCGE7RPAJdK0cvIlCQd3nQ0TeI9NxdjMZ5BBJ3gIyTzsVtIYY3HXVTVUTo03LyCLRE4ENltGe7FBqvLPUVgkSBzzrK2jwCPcUxYY9NkBywTaFJlr33uEegXB7jTB6BttFMwXVI+DnuVxRmjnCNILGjc5DbeTdQDvQrzXlIyDwkCSQC1cwa0bi4wchlEnUuBKMLlETn8DapTLO9oZZLmBjc5YhUyD6BNtKCfnl3asF3YQfoTQe22TzcSYjBOCN26BorQUnFZAeneZLGrNCfQ4bb8CFj33RY6kTnpfss92EPB1xkzA/VdVfWB8pkGA0MxikPRQU5dQjDIMueDG+16bIwGHvoSid2Bf9ZfYr8hbb04hVKRx2BfrP4aRSgCrVdbl0abVlssbbikM14hnHCStFkppie6D6M8CVsmq26pfAAK11cxOZZrOfHwmrwA43UX6M3zR2xEMi1PNGM7UzgaprzqUvvu5lKYW7xWK3YbvrrZAZn5B4oBCvoyK2W9YvNII7OYW7rfq0fY+0+QHEGisUP+JjGbHbhPZ0slYqJFAJVMR14JUE3pGu04HeuY4Pjb2llydGXuPuAunYIVIdlFqK61PPNMfswHXVjpdlFQdVwxloQp7YxTdGBvCECNWEpFS280j8Egj/o7bg5zs0Wyog7ysQxRf0oFas5dX5FKfGTXtRhCe84/IarLcxaIo8yMYxhuFkCdWSh5VutevgLwzju6PNrmb7BaiBcL3QobymxRY1AvZhrYxtW02c38od409Hnx6gHvVXBdQ7U4kGmhtJSmUAD+K+te+A40n02B01w2BblSpP5b3OkFnczJ3haUSLQs7xuW4rQ3GcE2s0Xjj6/mancjS3smoyhI5/lFyrEhkyWYw35RQ/HFBrZ+NhhAplxdjHCwZpcx1eBF+yxQUvPuwwU8pqWAiWh3sCnjh7my2g7msuHe+jgaEsbqwt3XhV4i2znKB/Jt/Hq+MVhp7/lDNWitY3QycbTxry9UOAMVIFHBHZnK98tYmscfXoFllFf97Q2gIWunIDr5gVsj823048X+Ar/7YK+d/j51VnDaA2JUHM+53XXBCgXQ7oEUkasX59W9LNc9ipJIEUU4gkG8BFz+C5AlaQg9WhPZ5MnNbvIzJv0/kYx9vrComI1U0x31s9aSlUXkcBx1/wC5LCf3ZyiMKWpJnTlMIpbmB9MILiH//ju9GQM2SQbuK5Yp6X8GVX4iO5Kx/h3udl2MLboRJwhrag1vuiLPxnCXcpyIPiMpqQxmj8lZyJyFxRenGUBt1OZ0WT9ffBTRixt6E1X6aol4BitrzhWl41R2/51TGNGqBN57R1PEp3pRVu5LzJIoFiOReExZB8fMYWfrD8glZH84XsjY2Maft9GVZtPM532Ykwk4mjvqjmdVwn0ctS09wj3GlHmNypByGYRCZatJP2D1VHTkjlMNpLNzPT0pUNRrKIJK6OmJfONZTNDoDNCXXFGJ/a5FvPCWZwx6tLBDIGKUFMyxCeLWAHdm38LBBpHquSHTwgUzwxj9rDGCdSd/5PsMIDlUdKOarxlJJtREWFFfnLI7axXUMGgCXM8h1wK3OQ8eutrbxqbgWKZ6nP6GEcWX0VNW96ilhgCDQ2MUSehgy+ipiVFmUFB+wS6kmckK0zgsyhqSxOetUugJGbK+Dum8EdU6VQN0V599An0VqhvYAkdTIyitsQyjcusE6ivg4GHohfvR5VCXgWtWzFtg9kU5uWPEu5jjDHhJ/k8mdwURW1P5YDasqwlB4phuWNG+l78Ds24sivIRv0jsIdwhnR2ml3C2kj6WMY5+jnu+M5NJKo5udMiUCPJAxv41nHHd+6ioXkCZUgW2MLjLrgAdg8Z5gn0qWBjZ7/hFLfmhWWLAsw1T6C9PBpV67j72EF304EiIhMLec9awdbM4YAM/GZYqT4U17vir8e5dIoV9Fe/izCmzpFMGmnUIY1UKstjvEm040MtWW5E7ne2sPnif7u0VyHzJoOFqEEa6aSRTm1Tnvv8SiCoxAcR73b0KDvYzCY2s4mdbm1dkjnomyWsnK2eKsBgDkVw67pZbZhdo+WBjLXB+aOemX820YUcm89IoAvtqGE6+pERZHPahlPBlXn+xtxHQbZbZv0ui5E4JJQmgpk25p9W4az6fBsV/8JHeyhnMcTGKGSGU125ls3o5C/JsReAdmTZGoV/ha/qE21u3nLyXKVJWEYV29vzAwLjG5pCGU7b3v+f8F1gFrFIZK2AU9h94an8C0KOkFs9JmaLrM3zB4LGIAyBkotwWJAUYqVhV3qVaE8vOloKxBmNGCNMEhSG4OIDBAqyPtW0/ChGa4Ywl70BJZbTNqqo0ILJ/MoJ9rGRWTxGCwMf1RCBI7DM7QbHsUOoLPS9EKFmHPW5j8lsVDlj5DA6Srw3JvE/hfad5wfe5h7SVZaXf5AjdARc1j+9Xbg4ffTFJ1fkNl7mG04aKDM8CuhTnJ90WpnBEkbQOd91SmfOC+7/Oe42e40DNzL/YQ57TJXIjgLFWzMy5N+ZxWNcS3sB59/QvnTR/1OriLkGnO1x+lwVQVeqb7vX7AUR5IrW287Q34got75lzFbf2uk/PYLM5hJp6mkCtY8ooeTD7hCoV0Sdfpp5mD7J1Iio+vR2h0CR5SvxSg8T6MoIE0RUNRvx0BqBIst1gJdnoEir+1HOmitgLdbdNO53qUF7WcrvFKQCbQKjledDRSqwNyoJdIZMjRipTmC6W9rQQwVLQZXSaloFTPCxdOFnlZy3epQ+MaqKGKvoQ9mLG9u2vMNZV05hK83HGrK+AregN5U4x1lOcp7jZJNBDkfJIYMsTlCRibY8m43i6ZCvIYG3uEch72iGeJJANfhN4a8neZAZQW2vyTTby90EZpNAIoUpRBEKUox4koilBLGU4Ahf8l/OR1L3PGjjWxipSvjpCrm/9ugM1EPx2qKhyhH7c1uzy2deVB9+22JjV2k0NpFdIfmPe1S3epwptYqSNq6vf/Gm7+reFpurrajRV6FEPU8SaJWCWosWrF9gz/XmFP2Opcb+obMzK6Zgbe7FMAyFyAxpxw06QpfdFgl00Cl5k7OKjC0slfpW5yh5QsFfnxdlQQ1C/E+e0vFyn8NCi+8qTW3vEegy6liU/ehhT1QQKLTOuzinU+YXlz/msBKoucVpU79UqPgz3RGDYWcRegVzTLdMho3R8CCBrKGKbo5Qlfo4GkfBDFRat0zZSJuBnMRyy2Zu2ofykorKnE94rHeSFWT553UvLuxYwJfz1gyUaHlOKKNzFumleIPntTt5pXv4eDpplilsSw/LY3NQSxvfykaNS5CS7Fc5/HsLzyq2Yovm7PuMLVn0WG910NO2GjtRdfv8mWqZCp7qn4UqrRihWqI+J2z1qcdiCH1q82Z4skKUjuIa9MlltPm75LAhTtWqN4f+iiVSLQsR/95head/iOWoAHvtOwNIVJz7VRavwIvI10iJ+L4pzVP8rmNkeXnQvHsfGQLUNa4X3xinFCrr85OQ55xiBfuIpQrNDMYNyuFT3uRL2w7pnDq6P8ztBlpyigV8xk7OUZbmdKOakLc/z3NemYHuD7OByh+MjDDN7Yo8wYYw98oi7yxhL0aEndMqHrbsIFwcSnAPS2x6chOTNnmHQP10mnKUT3maCS50Wg6reYq0sPRCCoNYwjkXWrmOB5mqqy/koXDAyRxRbMJuZvAQ9S4JMPu5pO2by6+8QVeX/MIm0ZF/s8m1mWXmJevc8tzB66xX8WfiKd3xdhwLMNvfwFvcrRgmoaOrk3gOGxhHN6o7tM/pzBjW2XR5aTZNUTgKFacDw/maUwEtd8ShqZNmbeXoSQoHWMNyjXvmOmwOC8GP8QPr+YEtbLcVGa0oKaRzBQ25Ikx+r/+lIXwsQGOuIYXjzOF7rxHIGBqyPux1OMw2trOdQxzkIIc4zGGyFcV/pShFKUpThjKkkEJ1G/fjojAinG5648Pe/ETCj1KU4qqQv57mLFmcAIpQkAIRq3EU1h6UBFJHYQpjREcn3EgI58tjJYE8j0RJIAlJIEkgSSBJIEkgSSBJIEkgCUkgSSBJILdgRIqxxUbEZC/jHMsMKMbJGUgTy7mdutRkiAG7zWhCLv8jnWupxeucsf0JRjHUPXhkMSufD+jL+Ms3QcZz6RrQ8rK8qNH2Q/4mkHLQulO8oaBysdRHBAr2GV+ER9ipYkXnazQIUfY8wFCVGIbv+IY+yrNKPHcqBLgc6vdTxJB8eoP3a+yKBvqGQEs1+qsNCwPs6pf6fQ8EcD2zWMsHdNHZ1F/vGwJN0OmxuoxjJV8ywKCxkwQAFX1DoIFeGZJYTxFojy3lUy9hsySQM9gqCSQJ5HTHnmCFokZzJGCHoU/guHck79FHoNU0pDmX05dVEVXzQzxFXVJoyHjdgCZb3Ap54j/crGP1NY6Cl/I2jKht8Qv5TpP7dIIPSziEahrdvp8OQbl/jCAC5ffTXEbTf9LjcqCdW3JPqjrzD5VeD44Y+iwLqVsMAxU81V9IN8mBdg7rFG/OlAPglTXo2OBsgAmwOZ9fRp3O9VOsXyO2KuauJofZOYRGAPpRw/fGJwYGN5N2QBJ1TNy1/UJDLieWywy5UDhNkkr9ijApJPefnjvaeAqN8rkuyGGspjC/q+7gZgX4rChm2A/h3/GEKhgIwvSBZou6BXkyeV4OsrO495JLmP3cqJO3kKozyzwC9s2X/1ZD9Jmer0wNXd+NN+jUshJfX8o7K+AcKeEQUniSUfQzZK3+hubQPmph0TsS4lChvoo3pAtpr4FweDHcyIu8oBMpTSIMaKoxtEqLRWXdjbHShriZRqlRchC8jY0qA/umSv4ndGJJK29x26oeyuvKIfA2nlTZx6iddeL5QePgfoXqe7ooBoFZLQfA6yiv4HLuE82Q5Feq+lR9WfNNfRQi8DwkB8D7CI5L8Y2uMZGyROh3iuiU+2eIjClZdr/30TzfjLKW4rolSnJAgUC3GHjXyHwlXpGdHx3oc+my4ksVi49g9LQYOjuG5y7thaZqLpRRgRjfUKgMHUhmLcsN98xi2gT8+yRphmOSVeV6CrCMDfLL9TOq5ZNi95EdImEWtfmCHHLZms/QWELCBBIoITtBQsIh/D9ufpwRjGQZXgAAACV0RVh0ZGF0ZTpjcmVhdGUAMjAyMS0wNS0wNlQxNzoyNDo1NyswMDowMEoTKBMAAAAldEVYdGRhdGU6bW9kaWZ5ADIwMjEtMDUtMDZUMTc6MjQ6NTcrMDA6MDA7TpCvAAAAAElFTkSuQmCC;" vertex="1" parent="8pe4ZQPsovDr-rk-gTb1-43">
          <mxGeometry x="11" y="69" width="67" height="67" as="geometry" />
        </mxCell>
        <mxCell id="8pe4ZQPsovDr-rk-gTb1-44" value="&lt;font style=&quot;font-size: 26px&quot;&gt;Application&lt;/font&gt;" style="text;html=1;align=center;verticalAlign=middle;resizable=0;points=[];autosize=1;strokeColor=none;fillColor=none;" parent="1" vertex="1">
          <mxGeometry x="125" y="580" width="140" height="20" as="geometry" />
        </mxCell>
        <mxCell id="8pe4ZQPsovDr-rk-gTb1-45" value="" style="endArrow=classic;html=1;rounded=1;sketch=0;fontSize=26;curved=0;strokeWidth=3;strokeColor=#FF0000;dashed=1;" parent="1" edge="1">
          <mxGeometry width="50" height="50" relative="1" as="geometry">
            <mxPoint x="280" y="500" as="sourcePoint" />
            <mxPoint x="590" y="240" as="targetPoint" />
          </mxGeometry>
        </mxCell>
        <mxCell id="8pe4ZQPsovDr-rk-gTb1-46" value="" style="endArrow=classic;html=1;rounded=1;dashed=1;sketch=0;fontSize=26;strokeColor=#3333FF;strokeWidth=3;curved=0;entryX=0;entryY=0.5;entryDx=0;entryDy=0;" parent="1" target="8pe4ZQPsovDr-rk-gTb1-3" edge="1">
          <mxGeometry width="50" height="50" relative="1" as="geometry">
            <mxPoint x="280" y="500" as="sourcePoint" />
            <mxPoint x="330" y="500" as="targetPoint" />
          </mxGeometry>
        </mxCell>
        <mxCell id="8pe4ZQPsovDr-rk-gTb1-47" value="" style="endArrow=classic;html=1;rounded=1;dashed=1;sketch=0;fontSize=26;strokeColor=#3333FF;strokeWidth=3;curved=0;entryX=0;entryY=0.5;entryDx=0;entryDy=0;" parent="1" target="8pe4ZQPsovDr-rk-gTb1-4" edge="1">
          <mxGeometry width="50" height="50" relative="1" as="geometry">
            <mxPoint x="280" y="500" as="sourcePoint" />
            <mxPoint x="330" y="450" as="targetPoint" />
          </mxGeometry>
        </mxCell>
      </root>
    </mxGraphModel>
  </diagram>
</mxfile>
